<svg width="128" height="128" viewBox="0 0 128 128" fill="none" xmlns="http://www.w3.org/2000/svg">
<circle cx="64" cy="64" r="63.5" fill="#DDE5E9" fill-opacity="0.43266"/>
<mask id="mask0_17390_226014" style="mask-type:luminance" maskUnits="userSpaceOnUse" x="0" y="0" width="128" height="128">
<circle cx="64" cy="64" r="63.5" fill="white"/>
</mask>
<g mask="url(#mask0_17390_226014)">
<path fill-rule="evenodd" clip-rule="evenodd" d="M98.8503 0.5C103.012 0.5 106.753 2.24722 109.336 5.0265C112.491 2.21487 116.69 0.5 121.299 0.5C131.1 0.5 139.045 8.25361 139.045 17.8182C139.045 18.2798 139.026 18.7372 138.99 19.1897C145.081 21.9331 149.308 27.946 149.308 34.9225C149.308 44.487 141.363 52.2406 131.562 52.2406C125.845 52.2406 120.759 49.6022 117.514 45.505C114.311 49.5748 108.966 52.2407 102.912 52.2407C95.3939 52.2407 88.9678 48.1288 86.3822 42.3225C85.8422 42.3775 85.2939 42.4056 84.7387 42.4056C76.2368 42.4056 69.3447 35.8007 69.3447 27.6531C69.3447 19.5055 76.2368 12.9006 84.7387 12.9006L84.8004 12.9007C85.4673 5.94503 91.5031 0.5 98.8503 0.5Z" fill="url(#paint0_linear_17390_226014)"/>
<path fill-rule="evenodd" clip-rule="evenodd" d="M16.8168 6.05896C18.9981 6.05896 20.9588 6.97471 22.3123 8.43136C23.9657 6.95776 26.1662 6.05896 28.5819 6.05896C33.7181 6.05896 37.8818 10.1224 37.8818 15.1348C37.8818 15.3768 37.8721 15.6165 37.8531 15.8537C41.045 17.2914 43.2601 20.4425 43.2601 24.0986C43.2601 29.111 39.0964 33.1744 33.9602 33.1744C30.9641 33.1744 28.299 31.7918 26.5981 29.6447C24.9197 31.7774 22.1183 33.1745 18.9459 33.1745C15.006 33.1745 11.6383 31.0196 10.2833 27.9768C10.0004 28.0055 9.7132 28.0203 9.42239 28.0203C4.96688 28.0203 1.35498 24.5589 1.35498 20.289C1.35498 16.0192 4.96688 12.5578 9.42239 12.5578L9.45376 12.5578C9.80323 8.91255 12.9664 6.05896 16.8168 6.05896Z" fill="url(#paint1_linear_17390_226014)"/>
<path fill-rule="evenodd" clip-rule="evenodd" d="M116.269 65.0705C98.5591 64.9069 78.4302 78.9983 67.3332 82.4126C55.5732 86.0309 21.3316 91.0168 21.3316 91.0168C21.3316 91.0168 85.9539 120.607 119.038 120.392C152.121 120.176 157.433 78.9983 157.433 78.9983C157.433 78.9983 133.292 65.2278 116.269 65.0705Z" fill="#CCD3DC"/>
<path fill-rule="evenodd" clip-rule="evenodd" d="M135.001 94.3262C135.001 94.3262 78.4151 181.976 41.6389 181.976C4.86282 181.976 -58.8246 89.9746 -58.8246 89.9746C-58.8246 89.9746 -31.0975 70.0163 0.67627 60.2797C24.0274 53.1241 42.6828 70.7456 81.3305 87.7314C96.7715 94.5178 135.001 94.3262 135.001 94.3262Z" fill="#DAE0E6"/>
<path fill-rule="evenodd" clip-rule="evenodd" d="M37.9824 91.3273C37.9824 91.3273 49.8977 91.9361 54.6962 90.0584C61.2007 87.0644 67.9732 64.8659 69.0279 61.6391C67.8341 58.695 64.309 58.7611 64.309 58.7611C64.309 58.7611 53.2141 80.4937 49.4801 80.1421C45.746 79.7905 36.9938 76.2591 36.9938 76.2591C36.9938 76.2591 34.6349 79.2503 34.7789 81.9845C34.9228 84.7188 37.9824 91.3273 37.9824 91.3273Z" fill="url(#paint2_linear_17390_226014)"/>
<rect x="53.0259" y="52.3519" width="11.7996" height="9.89648" rx="0.42809" transform="rotate(-6 53.0259 52.3519)" fill="url(#paint3_linear_17390_226014)"/>
<rect x="64.3633" y="50.4988" width="14.0832" height="11.736" rx="0.42809" transform="rotate(-6 64.3633 50.4988)" fill="#7C8A9B"/>
<rect x="65.3589" y="49.5247" width="14.4641" height="12.9415" rx="0.42809" transform="rotate(-6 65.3589 49.5247)" fill="url(#paint4_linear_17390_226014)"/>
<rect x="79.1196" y="47.6099" width="18.2704" height="14.2925" rx="0.42809" transform="rotate(-6 79.1196 47.6099)" fill="#7C8A9B"/>
<path fill-rule="evenodd" clip-rule="evenodd" d="M80.387 46.8447C80.3623 46.6096 80.5329 46.3989 80.768 46.3742L98.2136 44.5406C98.3931 44.5218 98.5642 44.6166 98.638 44.7812C99.053 45.7069 100.376 48.8681 100.736 52.2877C101.095 55.7094 100.461 59.1138 100.249 60.1145C100.212 60.2916 100.063 60.4209 99.8834 60.4398L82.4391 62.2733C82.204 62.298 81.9933 62.1274 81.9686 61.8923L80.387 46.8447Z" fill="url(#paint5_linear_17390_226014)"/>
<path fill-rule="evenodd" clip-rule="evenodd" d="M31.9852 68.7724L40.3283 72.6858C40.3283 72.6858 40.5597 76.8417 42.1552 80.9771C43.1916 86.8548 42.7634 88.6524 42.7634 88.6524L35.8287 89.8751C35.8287 89.8751 31.4891 84.4659 30.7409 80.2225C31.5152 76.3401 31.9852 68.7724 31.9852 68.7724Z" fill="#FAB795"/>
<path fill-rule="evenodd" clip-rule="evenodd" d="M28.0094 85.6526C28.4911 80.9266 32.3503 77.2963 37.0901 76.977C40.6606 76.7365 44.106 78.4261 45.8505 81.5507C47.6508 84.7751 49.6944 88.9236 50.2131 91.9378C51.4991 99.4106 50.6757 100.166 50.6757 109.249C50.6757 118.332 52.7254 139.366 52.7254 139.366C52.7254 139.366 47.1801 141.438 37.533 141.438C27.8859 141.438 18.2388 136.814 18.2388 136.814C18.2388 136.814 23.9022 123.187 24.9526 115.604C25.494 111.696 27.2777 108.982 27.2998 95.5585C27.3037 93.2068 27.642 89.257 28.0094 85.6526Z" fill="url(#paint6_linear_17390_226014)"/>
<path fill-rule="evenodd" clip-rule="evenodd" d="M79.0792 65.7137C79.0792 65.7137 81.8949 63.2273 83.1516 60.6496C84.4084 58.0718 81.3805 54.5772 79.0792 55.3609C77.8352 55.7846 77.2251 57.5657 76.1896 59.6256C75.564 60.8699 73.9468 62.7199 74.2157 63.7051C74.854 66.0436 79.0792 65.7137 79.0792 65.7137Z" fill="url(#paint7_linear_17390_226014)"/>
<path fill-rule="evenodd" clip-rule="evenodd" d="M41.2284 95.2047C41.2284 95.2047 54.5359 97.2946 60.1456 95.7524C67.8027 93.1582 78.0271 69.0315 79.5922 65.5327C78.5991 62.0859 74.6331 61.7442 74.6331 61.7442C74.6331 61.7442 59.6102 84.8376 55.4588 84.0022C51.3075 83.1667 41.8967 78.1684 41.8967 78.1684C41.8967 78.1684 38.8949 81.2488 38.7339 84.3359C38.5728 87.4231 41.2284 95.2047 41.2284 95.2047Z" fill="url(#paint8_linear_17390_226014)"/>
<ellipse cx="37.9639" cy="59.3329" rx="13.8552" ry="16.3665" transform="rotate(-48 37.9639 59.3329)" fill="url(#paint9_linear_17390_226014)"/>
<path fill-rule="evenodd" clip-rule="evenodd" d="M30.8943 37.3464C29.8643 37.3104 28.9571 37.8981 28.5364 38.7706C28.1021 37.6302 26.8902 36.9444 25.6593 37.206C24.4702 37.4588 23.6568 38.5121 23.6636 39.6819C22.8596 38.5659 21.3055 38.3001 20.1753 39.0914C19.3984 39.6354 19.0225 40.5386 19.1146 41.4194C18.1007 41.1121 16.9617 41.471 16.321 42.3861C15.7708 43.1719 15.7316 44.1626 16.134 44.9637C15.3674 45.2266 14.7414 45.8539 14.5159 46.6955C14.266 47.6282 14.5737 48.5789 15.2347 49.1937C14.4344 49.6857 13.9429 50.6076 14.0477 51.6042C14.1426 52.5068 14.703 53.2478 15.4654 53.6135C14.8407 54.24 14.5653 55.1775 14.8265 56.0883C15.2099 57.4256 16.6049 58.1989 17.9422 57.8154L21.5287 56.787C20.9357 60.1696 21.698 63.3306 23.9199 65.3313C28.0009 69.0057 35.4601 67.3743 40.5807 61.6873C45.7012 56.0004 46.544 48.4114 42.4631 44.737C40.1264 42.6329 36.6819 42.2686 33.2031 43.4092L33.3239 39.9517C33.3724 38.5614 32.2847 37.3949 30.8943 37.3464Z" fill="url(#paint10_linear_17390_226014)"/>
<path fill-rule="evenodd" clip-rule="evenodd" d="M22.4307 56.4894C22.4307 56.4894 30.36 52.271 33.1569 44.1634C25.3074 46.796 22.4307 56.4894 22.4307 56.4894Z" fill="#3E3E3E"/>
</g>
<defs>
<linearGradient id="paint0_linear_17390_226014" x1="83.6074" y1="18.9575" x2="83.6074" y2="52.2407" gradientUnits="userSpaceOnUse">
<stop stop-color="white"/>
<stop offset="1" stop-color="white" stop-opacity="0.158486"/>
</linearGradient>
<linearGradient id="paint1_linear_17390_226014" x1="8.82941" y1="15.7319" x2="8.82941" y2="33.1745" gradientUnits="userSpaceOnUse">
<stop stop-color="white"/>
<stop offset="1" stop-color="white" stop-opacity="0.158486"/>
</linearGradient>
<linearGradient id="paint2_linear_17390_226014" x1="72.859" y1="50.5238" x2="38.4152" y2="80.6677" gradientUnits="userSpaceOnUse">
<stop stop-color="#A8C3FF"/>
<stop offset="1" stop-color="#6F90FF"/>
</linearGradient>
<linearGradient id="paint3_linear_17390_226014" x1="54.4703" y1="49.2316" x2="52.592" y2="61.2592" gradientUnits="userSpaceOnUse">
<stop stop-color="#BDC8D4"/>
<stop offset="1" stop-color="#8897A9"/>
</linearGradient>
<linearGradient id="paint4_linear_17390_226014" x1="67.1295" y1="45.4444" x2="64.5177" y2="61.1213" gradientUnits="userSpaceOnUse">
<stop stop-color="#BDC8D4"/>
<stop offset="1" stop-color="#8897A9"/>
</linearGradient>
<linearGradient id="paint5_linear_17390_226014" x1="82.2099" y1="41.1545" x2="81.3151" y2="60.8131" gradientUnits="userSpaceOnUse">
<stop stop-color="#BDC8D4"/>
<stop offset="1" stop-color="#8897A9"/>
</linearGradient>
<linearGradient id="paint6_linear_17390_226014" x1="67.991" y1="63.973" x2="24.9906" y2="59.3339" gradientUnits="userSpaceOnUse">
<stop stop-color="#A8C3FF"/>
<stop offset="1" stop-color="#6F90FF"/>
</linearGradient>
<linearGradient id="paint7_linear_17390_226014" x1="83.1606" y1="51.9362" x2="83.1749" y2="63.8215" gradientUnits="userSpaceOnUse">
<stop stop-color="#FFDFC9"/>
<stop offset="1" stop-color="#FFBB99"/>
</linearGradient>
<linearGradient id="paint8_linear_17390_226014" x1="122.694" y1="41.7936" x2="79.1143" y2="-4.00561" gradientUnits="userSpaceOnUse">
<stop stop-color="#A8C3FF"/>
<stop offset="1" stop-color="#6F90FF"/>
</linearGradient>
<linearGradient id="paint9_linear_17390_226014" x1="53.4033" y1="33.1519" x2="23.0572" y2="54.8867" gradientUnits="userSpaceOnUse">
<stop stop-color="#FFDFC9"/>
<stop offset="1" stop-color="#FFBB99"/>
</linearGradient>
<linearGradient id="paint10_linear_17390_226014" x1="7.37596" y1="49.9072" x2="22.7871" y2="71.0131" gradientUnits="userSpaceOnUse">
<stop stop-color="#CB9577"/>
<stop offset="1" stop-color="#966060"/>
</linearGradient>
</defs>
</svg>
