<svg width="40" height="40" viewBox="0 0 40 40" fill="none" xmlns="http://www.w3.org/2000/svg">
<rect width="39.4414" height="39.5505" rx="19.7207" fill="#E7EDFF"/>
<path d="M12.2125 23.1425C12.0561 22.8725 11.7086 22.7786 11.4358 22.9353L8.56555 24.5848C8.29377 24.7414 8.20053 25.0875 8.35743 25.3584L11.291 30.4168C11.448 30.6872 11.7954 30.7801 12.0677 30.6239L14.9379 28.974C15.2101 28.8178 15.303 28.4717 15.146 28.2008L12.2125 23.1425Z" fill="#547FFF"/>
<path d="M28.6621 22.5882C28.3859 22.2063 27.8514 22.12 27.4682 22.395C26.3056 23.2289 24.0731 24.8302 23.8957 24.9578C23.814 25.027 23.7281 25.0898 23.6386 25.1453C23.2876 25.3652 22.8804 25.4826 22.4553 25.4826H19.5325C19.1956 25.4826 18.9223 25.2109 18.9223 24.8752C18.9223 24.539 19.196 24.2677 19.5325 24.2677H22.6583C23.1175 24.2677 23.4853 23.887 23.4662 23.429C23.4483 22.9944 23.0756 22.6575 22.6387 22.6575H20.2594C20.0983 22.4878 19.9218 22.3323 19.7326 22.1933C19.0821 21.7159 18.2783 21.4336 17.4082 21.4336C15.8612 21.4336 14.3219 22.4039 13.6836 23.6991L16.1797 28.0029H20.8619C21.7812 28.0029 22.6867 27.7688 23.4836 27.3124C23.7599 27.1544 24.0556 26.9645 24.3761 26.7353C25.7194 25.7746 28.4656 23.7789 28.4677 23.7776C28.8517 23.5031 28.9387 22.9701 28.6621 22.5882Z" fill="#547FFF"/>
<path d="M18.965 13.0742L17.4874 15.2979H14.7383L17.9341 13.0742H18.965Z" fill="#547FFF"/>
<path d="M22.5742 15.2979H17.832L19.3097 13.0742H21.1309L22.5742 15.2979Z" fill="#547FFF"/>
<path d="M25.665 15.2979H22.9159L21.4727 13.0742H22.5379L25.665 15.2979Z" fill="#547FFF"/>
<path d="M17.4547 15.6406L19.8945 21.6617L14.6367 15.6406H17.4547Z" fill="#547FFF"/>
<path d="M22.6452 15.6406L20.2054 21.6273L17.7656 15.6406H22.6452Z" fill="#547FFF"/>
<path d="M25.7695 15.6406L20.5117 21.6961L22.9859 15.6406H25.7695Z" fill="#547FFF"/>
<path d="M16.3906 9.96094C16.2875 9.96094 16.2188 10.0294 16.2188 10.132V10.8504C16.2188 10.953 16.2875 11.0215 16.3906 11.0215C16.4937 11.0215 16.5624 10.953 16.5624 10.8504V10.132C16.5624 10.0294 16.4937 9.96094 16.3906 9.96094Z" fill="#547FFF"/>
<path d="M16.3906 11.7422C16.2875 11.7422 16.2188 11.8448 16.2188 11.9475V12.6659C16.2188 12.7685 16.2875 12.8369 16.3906 12.8369C16.4937 12.8369 16.5624 12.7685 16.5624 12.6659V11.9475C16.5624 11.8448 16.4937 11.7422 16.3906 11.7422Z" fill="#547FFF"/>
<path d="M17.6591 11.1953H16.9374C16.8344 11.1953 16.7656 11.2637 16.7656 11.3664C16.7656 11.469 16.8344 11.5374 16.9374 11.5374H17.6591C17.7622 11.5374 17.8309 11.469 17.8309 11.3664C17.8309 11.2979 17.7622 11.1953 17.6591 11.1953Z" fill="#547FFF"/>
<path d="M15.8388 11.1953H15.1171C15.014 11.1953 14.9453 11.2637 14.9453 11.3664C14.9453 11.469 15.014 11.5374 15.1171 11.5374H15.8388C15.9419 11.5374 16.0106 11.469 16.0106 11.3664C16.0106 11.2979 15.9419 11.1953 15.8388 11.1953Z" fill="#547FFF"/>
<path d="M25.0117 17.625C24.9086 17.625 24.8398 17.6934 24.8398 17.7961V18.5145C24.8398 18.6171 24.9086 18.6855 25.0117 18.6855C25.1148 18.6855 25.1835 18.6171 25.1835 18.5145V17.7961C25.1835 17.6934 25.1148 17.625 25.0117 17.625Z" fill="#547FFF"/>
<path d="M25.0117 19.4375C24.9086 19.4375 24.8398 19.5059 24.8398 19.6086V20.327C24.8398 20.4296 24.9086 20.498 25.0117 20.498C25.1148 20.498 25.1835 20.4296 25.1835 20.327V19.6086C25.1835 19.5059 25.1148 19.4375 25.0117 19.4375Z" fill="#547FFF"/>
<path d="M26.2489 18.8906H25.5273C25.4242 18.8906 25.3555 18.959 25.3555 19.0617C25.3555 19.1643 25.4242 19.2327 25.5273 19.2327H26.2489C26.352 19.2327 26.4207 19.1643 26.4207 19.0617C26.4551 18.959 26.3864 18.8906 26.2489 18.8906Z" fill="#547FFF"/>
<path d="M24.4677 18.8906H23.746C23.6429 18.8906 23.5742 18.959 23.5742 19.0617C23.5742 19.1643 23.6429 19.2327 23.746 19.2327H24.4677C24.5708 19.2327 24.6395 19.1643 24.6395 19.0617C24.6395 18.959 24.5708 18.8906 24.4677 18.8906Z" fill="#547FFF"/>
</svg>
