<svg width="40" height="40" viewBox="0 0 40 40" fill="none" xmlns="http://www.w3.org/2000/svg">
<rect x="0.333984" width="39.4941" height="39.4941" rx="19.747" fill="#DAFFF6"/>
<path d="M22.3956 19.8835C25.6733 19.8835 28.3395 17.2171 28.3395 13.9398C28.3395 10.6624 25.6733 7.99609 22.3956 7.99609C19.1178 7.99609 16.4512 10.6624 16.4512 13.9398C16.4512 17.2171 19.1178 19.8835 22.3956 19.8835ZM21.6916 10.4461V10.2847C21.6916 9.89567 22.0065 9.5808 22.3956 9.5808C22.7841 9.5808 23.0995 9.89567 23.0995 10.2847V10.4471C23.9373 10.6268 24.5676 11.3729 24.5676 12.2636C24.5676 12.6521 24.2522 12.9675 23.8636 12.9675C23.4745 12.9675 23.1596 12.6521 23.1596 12.2636C23.1596 12.0153 22.9573 11.8131 22.7091 11.8131H22.0778C21.8296 11.8131 21.6273 12.0153 21.6273 12.2636C21.6273 12.4058 21.6953 12.5409 21.8098 12.6254L22.3956 13.059L23.8185 14.112C24.286 14.4579 24.5676 15.0111 24.5713 15.593V15.5996C24.5746 16.096 24.3845 16.5644 24.0353 16.9177C23.7763 17.18 23.4525 17.356 23.0995 17.4302V17.5949C23.0995 17.9839 22.7841 18.2988 22.3956 18.2988C22.0065 18.2988 21.6916 17.9839 21.6916 17.5949V17.4325C21.348 17.3593 21.0322 17.1904 20.7769 16.9379C20.4235 16.5892 20.2273 16.1237 20.2245 15.6273C20.2221 15.2387 20.5352 14.9215 20.9238 14.9191H20.9285C21.3152 14.9191 21.6301 15.2317 21.6324 15.6188C21.6334 15.8617 21.8289 16.0665 22.0853 16.0665C22.4743 16.0641 22.3294 16.065 22.7156 16.0627C22.9655 16.0608 23.1653 15.858 23.1634 15.609V15.6024C23.1624 15.4616 23.0944 15.3274 22.9808 15.2434L22.3956 14.8103L20.9721 13.7572C20.5009 13.4081 20.2193 12.8497 20.2193 12.2636C20.2193 11.371 20.8515 10.6244 21.6916 10.4461Z" fill="#0AC295"/>
<rect x="19.0449" y="9.19922" width="6.0071" height="9.61024" fill="#0AC295"/>
<path d="M22.8655 13.2811L22.7768 13.5858H20.9872L21.0759 13.2811H22.8655ZM22.0633 15.4023L21.0431 14.2106L21.0412 13.9715H21.5117C21.648 13.9715 21.7605 13.949 21.8492 13.904C21.9392 13.8577 22.0067 13.7953 22.0517 13.7169C22.0967 13.6385 22.1192 13.5504 22.1192 13.4527C22.1192 13.3434 22.098 13.2477 22.0556 13.1654C22.0131 13.0818 21.9463 13.0169 21.855 12.9706C21.765 12.923 21.6467 12.8993 21.5002 12.8993H20.9911L21.0817 12.5946H21.5002C21.7239 12.5946 21.9084 12.6286 22.0536 12.6968C22.2002 12.7636 22.3095 12.8613 22.3815 12.9899C22.4535 13.1185 22.4895 13.274 22.4895 13.4566C22.4895 13.6134 22.4592 13.7542 22.3988 13.8789C22.3397 14.0023 22.2413 14.0994 22.1038 14.1701C21.9675 14.2408 21.7837 14.2761 21.5522 14.2761L22.501 15.3792V15.4023H22.0633ZM22.8655 12.5946L22.7768 12.8993H21.3343L21.423 12.5946H22.8655Z" fill="#343438"/>
<path d="M12.7679 22.7421C12.5874 22.4293 12.1866 22.3205 11.8718 22.502L8.56042 24.4134C8.24687 24.5948 8.1393 24.9958 8.32032 25.3097L11.7048 31.1709C11.8859 31.4844 12.2867 31.592 12.6008 31.411L15.9122 29.4992C16.2263 29.3182 16.3334 28.9172 16.1523 28.6033L12.7679 22.7421Z" fill="#0AC295"/>
<path d="M31.7436 22.0918C31.425 21.6493 30.8083 21.5493 30.3662 21.8679C29.0249 22.8342 26.4493 24.6896 26.2446 24.8374C26.1503 24.9177 26.0513 24.9904 25.948 25.0547C25.543 25.3095 25.0732 25.4456 24.5828 25.4456H21.2107C20.8221 25.4456 20.5068 25.1307 20.5068 24.7417C20.5068 24.3522 20.8226 24.0378 21.2107 24.0378H24.817C25.3468 24.0378 25.7711 23.5967 25.749 23.066C25.7284 22.5624 25.2985 22.172 24.7945 22.172H22.0494C21.8636 21.9754 21.6599 21.7952 21.4416 21.6342C20.6912 21.081 19.7638 20.7539 18.76 20.7539C16.9751 20.7539 15.1993 21.8783 14.4629 23.379L17.3426 28.3658H22.7445C23.8051 28.3658 24.8498 28.0946 25.7692 27.5657C26.0879 27.3827 26.4291 27.1626 26.7989 26.897C28.3486 25.7839 31.517 23.4714 31.5193 23.47C31.9623 23.1518 32.0628 22.5343 31.7436 22.0918Z" fill="#0AC295"/>
</svg>
