
<svg width="40" height="40" viewBox="0 0 40 40" fill="none" xmlns="http://www.w3.org/2000/svg">
<rect width="39.4941" height="39.4941" rx="19.747" fill="#FFF5D9"/>
<g clip-path="url(#clip0_20877_100880)">
<path d="M15.9245 12.2432H24.3668L26.1888 10.7856C26.8091 10.2906 27.0408 9.48703 26.7785 8.73717C26.5163 7.98731 25.8349 7.50391 25.0429 7.50391H15.2484C14.4564 7.50391 13.775 7.98837 13.5128 8.73717C13.2505 9.48598 13.4822 10.2906 14.1015 10.7845L15.9245 12.2432Z" fill="#FFBB38"/>
<path d="M24.508 13.8242H15.7772C12.901 16.6478 10.6641 21.6019 10.6641 25.6724C10.6641 29.2101 12.5366 32.7814 16.7198 32.7814H23.8288C27.4022 32.7814 29.6212 30.0568 29.6212 25.6724C29.6212 21.6019 27.3843 16.6478 24.508 13.8242ZM19.7424 22.5129H20.5428C21.774 22.5129 22.7756 23.5145 22.7756 24.7456C22.7756 25.8525 21.9773 26.7635 20.9325 26.9489V27.7777C20.9325 28.2138 20.5787 28.5676 20.1426 28.5676C19.7066 28.5676 19.3528 28.2138 19.3528 27.7777V26.9889H18.2996C17.8636 26.9889 17.5097 26.635 17.5097 26.199C17.5097 25.763 17.8636 25.4091 18.2996 25.4091H20.5428C20.903 25.4091 21.1958 25.1164 21.1958 24.7562C21.1958 24.3855 20.903 24.0927 20.5428 24.0927H19.7424C18.5113 24.0927 17.5097 23.0911 17.5097 21.8599C17.5097 20.7531 18.308 19.8421 19.3528 19.6567V18.8268C19.3528 18.3908 19.7066 18.0369 20.1426 18.0369C20.5787 18.0369 20.9325 18.3908 20.9325 18.8268V19.6167H21.9857C22.4217 19.6167 22.7756 19.9705 22.7756 20.4066C22.7756 20.8426 22.4217 21.1964 21.9857 21.1964H19.7424C19.3822 21.1964 19.0895 21.4892 19.0895 21.8494C19.0895 22.2201 19.3822 22.5129 19.7424 22.5129Z" fill="#FFBB38"/>
<rect x="15.0859" y="17.6133" width="10.1105" height="12.6381" fill="#FFBB38"/>
<path d="M21.1434 22.795L20.9838 23.3435H17.7625L17.9222 22.795H21.1434ZM19.6994 26.6133L17.8632 24.4681L17.8597 24.0377H18.7067C18.952 24.0377 19.1545 23.9972 19.3141 23.9162C19.4761 23.8329 19.5976 23.7206 19.6786 23.5795C19.7596 23.4383 19.8001 23.2798 19.8001 23.1039C19.8001 22.9072 19.7619 22.7348 19.6856 22.5867C19.6092 22.4363 19.4889 22.3195 19.3246 22.2362C19.1626 22.1505 18.9497 22.1077 18.6859 22.1077H17.7695L17.9326 21.5593H18.6859C19.0885 21.5593 19.4206 21.6206 19.6821 21.7432C19.9459 21.8636 20.1426 22.0395 20.2722 22.2709C20.4018 22.5023 20.4666 22.7823 20.4666 23.1109C20.4666 23.3932 20.4122 23.6466 20.3034 23.8711C20.197 24.0932 20.02 24.2679 19.7723 24.3952C19.527 24.5225 19.1961 24.5861 18.7796 24.5861L20.4874 26.5716V26.6133H19.6994ZM21.1434 21.5593L20.9838 22.1077H18.3873L18.547 21.5593H21.1434Z" fill="#FFF5D9"/>
</g>
<defs>
<clipPath id="clip0_20877_100880">
<rect x="7.50391" y="7.50391" width="25.2762" height="25.2762" fill="white"/>
</clipPath>
</defs>
</svg>
