
<svg width="41" height="40" viewBox="0 0 41 40" fill="none" xmlns="http://www.w3.org/2000/svg">
<rect x="0.666016" width="39.4941" height="39.5236" rx="19.747" fill="#FFE0EB"/>
<path d="M25.0551 15.1382C24.7352 10.6509 20.9961 7.10938 16.4278 7.10938C11.6491 7.10938 7.77539 10.9835 7.77539 15.7618C7.77539 18.4649 9.01542 20.8777 10.9572 22.4645C10.8933 22.8884 10.8599 23.3215 10.8599 23.7627C10.8599 28.5415 14.734 32.4152 19.5124 32.4152C19.9272 32.4152 20.3348 32.3841 20.7341 32.3277C21.1334 32.3841 21.541 32.4152 21.9558 32.4152C22.3705 32.4152 22.7782 32.3841 23.1775 32.3277C23.5768 32.3841 23.9844 32.4152 24.3992 32.4152C29.1779 32.4152 33.0516 28.5411 33.0516 23.7627C33.0516 19.2054 29.5267 15.4731 25.0553 15.1381L25.0551 15.1382ZM9.04456 15.7619C9.04456 11.6843 12.3502 8.37867 16.4278 8.37867C20.5054 8.37867 23.8111 11.6843 23.8111 15.7619C23.8111 19.8396 20.5054 23.1452 16.4278 23.1452C12.3502 23.1452 9.04456 19.8396 9.04456 15.7619ZM19.5124 31.1468C15.4347 31.1468 12.1291 27.8412 12.1291 23.7636C12.1291 23.6019 12.143 23.4437 12.1531 23.2841C12.5209 23.4936 12.9073 23.6733 13.306 23.8285C13.3412 27.2275 16.1046 29.9727 19.512 29.9727C22.941 29.9727 25.7209 27.1929 25.7209 23.7639C25.7209 22.184 25.1258 20.7463 24.1542 19.6503C24.3458 19.2704 24.5124 18.875 24.6469 18.4654C26.0312 19.8075 26.895 21.6836 26.895 23.7639C26.8953 27.8412 23.5896 31.1471 19.5124 31.1471L19.5124 31.1468ZM24.8962 30.5342C26.887 28.9489 28.1649 26.506 28.1649 23.7633C28.1649 21.0608 26.9232 18.6518 24.9826 17.0646C24.9842 17.055 24.9849 17.045 24.9862 17.0354C27.5512 18.1925 29.3387 20.7667 29.3387 23.7632C29.3387 26.7947 27.5098 29.3972 24.8962 30.5341L24.8962 30.5342ZM27.3396 30.5342C29.3304 28.9489 30.6082 26.506 30.6082 23.7633C30.6082 21.0204 29.3307 18.5775 27.3396 16.9924C29.9529 18.1291 31.7819 20.7316 31.7819 23.7633C31.7819 26.7948 29.9529 29.3973 27.3396 30.5342Z" fill="#FF82AC"/>
<path d="M22.6348 15.7596C22.6348 19.1889 19.8552 21.9687 16.4259 21.9687C12.9966 21.9687 10.2168 19.1889 10.2168 15.7596C10.2168 12.3306 12.9966 9.55078 16.4259 9.55078C19.8552 9.55078 22.6348 12.3306 22.6348 15.7596Z" fill="#FF82AC"/>
<path d="M16.6064 19.8167C16.5584 19.8171 16.5104 19.8057 16.4675 19.7832L15.0713 19.0609C14.6747 18.8552 14.3648 18.6248 14.1228 18.3564C13.5931 17.7694 13.2988 17.0158 13.2937 16.2342L13.2774 13.6614C13.2758 13.3645 13.4671 13.098 13.7535 12.998L16.3172 12.1038C16.4694 12.0498 16.6392 12.0486 16.7942 12.1011L19.3676 12.9645C19.6556 13.0607 19.8504 13.3253 19.852 13.6219L19.8683 16.1965C19.8734 16.977 19.5889 17.734 19.0678 18.3271C18.8281 18.5993 18.521 18.8331 18.1287 19.0422L16.7454 19.7817C16.702 19.8045 16.6544 19.8163 16.6064 19.8167Z" fill="#FFB5CE"/>
<path d="M16.311 16.8379C16.2361 16.8386 16.1611 16.8113 16.1034 16.7558L15.3606 16.041C15.2454 15.9304 15.2443 15.7502 15.3579 15.638C15.4718 15.5258 15.6568 15.5247 15.772 15.6353L16.3067 16.1494L17.6127 14.862C17.7263 14.7499 17.9117 14.7491 18.0269 14.8598C18.1416 14.9704 18.1428 15.1506 18.0292 15.2628L16.5175 16.7531C16.4605 16.8094 16.386 16.8375 16.311 16.8379Z" fill="#343438"/>
</svg>
