<svg width="26" height="31" viewBox="0 0 26 31" fill="none" xmlns="http://www.w3.org/2000/svg">
<path d="M22.1588 9.61356L12.5128 0L11.5421 0.85861C11.443 0.946627 11.333 1.04812 11.2176 1.16397C10.4912 1.88697 9.50243 3.16051 9.15452 4.96665C9.03194 5.60072 9.00761 6.20696 9.04907 6.77637C7.4348 7.37632 5.91968 8.32115 4.62358 9.61356C-0.211114 14.4302 -0.211114 22.27 4.62358 27.0875C9.45827 31.9051 17.3259 31.9051 22.1597 27.0875C26.9935 22.2691 26.9935 14.4302 22.1588 9.61356ZM20.211 25.1449C16.4507 28.8919 10.3325 28.8919 6.57223 25.1449C2.81192 21.3979 2.81192 15.3014 6.57223 11.5544C7.51682 10.6132 8.61012 9.90904 9.77733 9.44202C10.42 10.791 11.2735 11.6613 11.4637 11.8463L12.1208 12.5019C11.0275 12.7346 9.99005 13.2734 9.1437 14.1168C6.80207 16.4501 6.80207 20.2483 9.1437 22.5816C11.4853 24.915 15.297 24.915 17.6387 22.5816C19.9803 20.2483 19.9803 16.4501 17.6387 14.1168C17.6387 14.1168 17.6116 14.0907 17.599 14.0791L17.5999 14.0782L13.388 9.8812C13.3511 9.84617 12.9383 9.44112 12.5417 8.781C12.137 8.11099 11.7503 7.17604 11.7909 6.10188C11.7972 5.8998 11.8206 5.69323 11.8612 5.48217C11.9829 4.8472 12.2379 4.31461 12.5201 3.88979L20.211 11.5535C23.9722 15.3014 23.9722 21.3979 20.211 25.1449ZM15.6909 20.6408C14.4227 21.9044 12.3605 21.9044 11.0924 20.6408C9.8242 19.3771 9.8242 17.3222 11.0924 16.0585C12.3605 14.7949 14.4227 14.7949 15.6909 16.0585C16.9582 17.3222 16.9582 19.378 15.6909 20.6408Z" fill="#725AEC"/>
</svg>
