<svg width="18" height="19" viewBox="0 0 18 19" fill="none" xmlns="http://www.w3.org/2000/svg">
<path fill-rule="evenodd" clip-rule="evenodd" d="M5.4629 0.523438C4.90117 0.523438 4.46669 1.0075 4.46669 1.55882V3.21678H1.4259C0.879521 3.21678 0.429688 3.66647 0.429688 4.21299V17.5627C0.429688 18.1091 0.879371 18.5589 1.4259 18.5589H16.7349C17.2814 18.5589 17.7311 18.1092 17.7311 17.5627V7.15571C17.7311 6.60933 17.2814 6.1595 16.7349 6.1595H13.6941V1.55893C13.6941 1.00581 13.2592 0.52355 12.6979 0.52355H5.46283L5.4629 0.523438ZM5.4629 1.36221H12.698C12.7704 1.36221 12.8552 1.43638 12.8552 1.55882V17.7198H10.673V15.3016C10.673 15.2467 10.6613 15.1951 10.6402 15.1443C10.6192 15.0936 10.5873 15.0456 10.5485 15.0067C10.5097 14.9679 10.4616 14.9359 10.4108 14.915C10.3601 14.8939 10.3084 14.8822 10.2536 14.8822H7.90751C7.85266 14.8822 7.80087 14.8939 7.75026 14.915C7.69949 14.936 7.65152 14.9679 7.6126 15.0067C7.57384 15.0454 7.5418 15.0936 7.52088 15.1443C7.49982 15.1951 7.48812 15.2467 7.48812 15.3016V17.7198H5.30587V1.55882C5.30587 1.43462 5.38706 1.36221 5.46312 1.36221H5.4629ZM2.41551 5.72049H3.31983C3.37468 5.72049 3.42647 5.73219 3.47708 5.75326C3.52784 5.77432 3.57582 5.80621 3.61473 5.84497C3.6535 5.88374 3.68553 5.93187 3.70645 5.98263C3.72752 6.03339 3.73922 6.08503 3.73922 6.13988V7.03779C3.73922 7.09264 3.72752 7.15087 3.70645 7.20163C3.68539 7.25239 3.6535 7.29393 3.61473 7.3327C3.57582 7.37146 3.52784 7.4035 3.47708 7.42442C3.42632 7.44548 3.37468 7.45718 3.31983 7.45718H2.41551C2.36066 7.45718 2.30887 7.44548 2.25826 7.42442C2.2075 7.40335 2.15937 7.37146 2.12061 7.3327C2.08169 7.29393 2.04981 7.25239 2.02889 7.20163C2.00782 7.15087 1.99612 7.09264 1.99612 7.03779V6.13988C1.99612 6.08503 2.00782 6.03339 2.02889 5.98263C2.04995 5.93187 2.08184 5.88389 2.12061 5.84497C2.15937 5.80621 2.2075 5.77417 2.25826 5.75326C2.30902 5.73219 2.36066 5.72049 2.41551 5.72049ZM13.6943 6.99842H16.7351C16.8223 6.99842 16.8924 7.06849 16.8924 7.15568V17.5627C16.8924 17.6498 16.8223 17.7199 16.7351 17.7199H13.6943V6.99836V6.99842ZM2.41551 8.59085H3.31983C3.37468 8.59085 3.42647 8.60255 3.47708 8.62362C3.52784 8.64468 3.57582 8.67658 3.61473 8.71534C3.6535 8.75411 3.68553 8.80223 3.70645 8.85299C3.72752 8.90375 3.73922 8.95539 3.73922 9.01025V9.90815C3.73922 9.96301 3.72752 10.0212 3.70645 10.072C3.68539 10.1228 3.6535 10.1707 3.61473 10.2096C3.57582 10.2484 3.52784 10.2739 3.47708 10.2948C3.42632 10.3158 3.37468 10.3275 3.31983 10.3275H2.41551C2.36066 10.3275 2.30887 10.3158 2.25826 10.2948C2.2075 10.2737 2.15937 10.2484 2.12061 10.2096C2.08169 10.1709 2.04981 10.1228 2.02889 10.072C2.00782 10.0212 1.99612 9.96301 1.99612 9.90815V9.01025C1.99612 8.95539 2.00782 8.9036 2.02889 8.85299C2.04995 8.80223 2.08184 8.75411 2.12061 8.71534C2.15937 8.67657 2.2075 8.64454 2.25826 8.62362C2.30902 8.60255 2.36066 8.59085 2.41551 8.59085ZM2.41551 11.4612H3.31983C3.37468 11.4612 3.42647 11.4729 3.47708 11.494C3.52784 11.515 3.57582 11.5469 3.61473 11.5857C3.6535 11.6245 3.68553 11.6726 3.70645 11.7234C3.72752 11.7741 3.73922 11.8258 3.73922 11.8806V12.7785C3.73922 12.8334 3.72752 12.8916 3.70645 12.9424C3.68539 12.9931 3.6535 13.0412 3.61473 13.08C3.57582 13.1188 3.52784 13.1442 3.47708 13.1651C3.42632 13.1862 3.37468 13.1979 3.31983 13.1979H2.41551C2.36066 13.1979 2.30887 13.1862 2.25826 13.1651C2.2075 13.1441 2.15937 13.1188 2.12061 13.08C2.08169 13.0412 2.04981 12.9931 2.02889 12.9424C2.00782 12.8916 1.99612 12.8334 1.99612 12.7785V11.8806C1.99612 11.8258 2.00782 11.7741 2.02889 11.7234C2.04995 11.6726 2.08184 11.6246 2.12061 11.5857C2.15937 11.5469 2.2075 11.5149 2.25826 11.494C2.30902 11.4729 2.36066 11.4612 2.41551 11.4612ZM2.41551 14.3382H3.31983C3.37468 14.3382 3.42647 14.3434 3.47708 14.3644C3.52784 14.3854 3.57582 14.4173 3.61473 14.4561C3.6535 14.4948 3.68553 14.543 3.70645 14.5937C3.72752 14.6445 3.73922 14.7027 3.73922 14.7576V15.6489C3.73922 15.7037 3.72752 15.762 3.70645 15.8127C3.68539 15.8635 3.6535 15.9116 3.61473 15.9504C3.57582 15.9891 3.52784 16.0146 3.47708 16.0355C3.42632 16.0566 3.37468 16.0683 3.31983 16.0683H2.41551C2.36066 16.0683 2.30887 16.0566 2.25826 16.0355C2.2075 16.0144 2.15937 15.9891 2.12061 15.9504C2.08169 15.9116 2.04981 15.8635 2.02889 15.8127C2.00782 15.762 1.99612 15.7037 1.99612 15.6489V14.7576C1.99612 14.7027 2.00782 14.6445 2.02889 14.5937C2.04995 14.543 2.08184 14.495 2.12061 14.4561C2.15937 14.4173 2.2075 14.3853 2.25826 14.3644C2.30902 14.3433 2.36066 14.3382 2.41551 14.3382Z" fill="#725AEC"/>
<path fill-rule="evenodd" clip-rule="evenodd" d="M7.19659 11.207C7.14174 11.207 7.08688 11.218 7.03612 11.2389C6.98536 11.26 6.93884 11.291 6.90008 11.3299C6.86131 11.3687 6.83015 11.4152 6.80923 11.466C6.78817 11.5167 6.77734 11.5716 6.77734 11.6264V12.5223C6.77734 12.5771 6.78832 12.632 6.80923 12.6827C6.8303 12.7335 6.86131 12.78 6.90008 12.8188C6.93899 12.8577 6.98536 12.8887 7.03612 12.9098C7.08688 12.9308 7.14174 12.9417 7.19659 12.9417H8.09461C8.14947 12.9417 8.20433 12.9307 8.25509 12.9098C8.30585 12.8887 8.35237 12.8577 8.39113 12.8188C8.4299 12.78 8.46106 12.7335 8.48198 12.6827C8.50304 12.632 8.51386 12.5771 8.51386 12.5223V11.6264C8.51386 11.5716 8.50289 11.5167 8.48198 11.466C8.46091 11.4152 8.4299 11.3687 8.39113 11.3299C8.35222 11.291 8.30585 11.26 8.25509 11.2389C8.20433 11.2179 8.14947 11.207 8.09461 11.207H7.19659Z" fill="#725AEC"/>
<path fill-rule="evenodd" clip-rule="evenodd" d="M7.19659 8.33594C7.14174 8.33594 7.08688 8.34691 7.03612 8.36783C6.98536 8.38889 6.93884 8.4199 6.90008 8.45867C6.86131 8.49758 6.83015 8.54395 6.80923 8.59471C6.78817 8.64548 6.77734 8.70033 6.77734 8.75519V9.65104C6.77734 9.70589 6.78832 9.76075 6.80923 9.81151C6.8303 9.86227 6.86131 9.90879 6.90008 9.94755C6.93899 9.98632 6.98536 10.0175 7.03612 10.0385C7.08688 10.0596 7.14174 10.0704 7.19659 10.0704H8.09461C8.14947 10.0704 8.20433 10.0595 8.25509 10.0385C8.30585 10.0175 8.35237 9.98647 8.39113 9.94755C8.4299 9.90879 8.46106 9.86227 8.48198 9.81151C8.50304 9.76075 8.51386 9.70589 8.51386 9.65104V8.75519C8.51386 8.70033 8.50289 8.64548 8.48198 8.59471C8.46091 8.54395 8.4299 8.49743 8.39113 8.45867C8.35222 8.4199 8.30585 8.38875 8.25509 8.36783C8.20433 8.34676 8.14947 8.33594 8.09461 8.33594H7.19659Z" fill="#725AEC"/>
<path fill-rule="evenodd" clip-rule="evenodd" d="M7.19659 5.46484C7.14174 5.46484 7.08688 5.47582 7.03612 5.49673C6.98536 5.5178 6.93884 5.54881 6.90008 5.58772C6.86131 5.62649 6.83015 5.673 6.80923 5.72377C6.78817 5.77453 6.77734 5.82938 6.77734 5.88424V6.78215C6.77734 6.837 6.78832 6.89186 6.80923 6.94262C6.8303 6.99338 6.86131 7.0399 6.90008 7.07867C6.93899 7.11743 6.98536 7.14859 7.03612 7.16965C7.08688 7.19072 7.14174 7.20154 7.19659 7.20154H8.09461C8.14947 7.20154 8.20433 7.19057 8.25509 7.16965C8.30585 7.14859 8.35237 7.11758 8.39113 7.07867C8.4299 7.0399 8.46106 6.99338 8.48198 6.94262C8.50304 6.89186 8.51387 6.83701 8.51387 6.78215V5.88424C8.51387 5.82939 8.50289 5.77453 8.48198 5.72377C8.46091 5.673 8.4299 5.62649 8.39113 5.58772C8.35222 5.54896 8.30585 5.5178 8.25509 5.49673C8.20433 5.47567 8.14947 5.46484 8.09461 5.46484H7.19659Z" fill="#725AEC"/>
<path fill-rule="evenodd" clip-rule="evenodd" d="M7.19659 2.59375C7.14174 2.59375 7.08688 2.60472 7.03612 2.62564C6.98536 2.6467 6.93884 2.67772 6.90008 2.71663C6.86131 2.7554 6.83015 2.80191 6.80923 2.85267C6.78817 2.90343 6.77734 2.95829 6.77734 3.01315V3.91117C6.77734 3.96602 6.78832 4.02088 6.80923 4.07164C6.8303 4.1224 6.86131 4.16892 6.90008 4.20768C6.93899 4.24645 6.98536 4.27761 7.03612 4.29867C7.08688 4.31974 7.14174 4.33056 7.19659 4.33056H8.09461C8.14947 4.33056 8.20433 4.31959 8.25509 4.29867C8.30585 4.27761 8.35237 4.2466 8.39113 4.20768C8.4299 4.16892 8.46106 4.1224 8.48198 4.07164C8.50304 4.02088 8.51386 3.96602 8.51386 3.91117V3.01315C8.51386 2.95829 8.50289 2.90343 8.48198 2.85267C8.46091 2.80191 8.4299 2.75539 8.39113 2.71663C8.35222 2.67786 8.30585 2.6467 8.25509 2.62564C8.20433 2.60457 8.14947 2.59375 8.09461 2.59375H7.19659Z" fill="#725AEC"/>
<path fill-rule="evenodd" clip-rule="evenodd" d="M10.0677 11.207C10.0128 11.207 9.95798 11.218 9.90721 11.2389C9.85645 11.26 9.80993 11.291 9.77117 11.3299C9.7324 11.3687 9.70125 11.4152 9.68033 11.466C9.65926 11.5167 9.64844 11.5716 9.64844 11.6264V12.5223C9.64844 12.5771 9.65941 12.632 9.68033 12.6827C9.70139 12.7335 9.7324 12.78 9.77117 12.8188C9.81008 12.8577 9.85645 12.8887 9.90721 12.9098C9.95798 12.9308 10.0128 12.9417 10.0677 12.9417H10.9635C11.0184 12.9417 11.0732 12.9307 11.124 12.9098C11.1748 12.8887 11.2213 12.8577 11.2601 12.8188C11.2988 12.78 11.33 12.7335 11.3509 12.6827C11.372 12.632 11.3828 12.5771 11.3828 12.5223V11.6264C11.3828 11.5716 11.3718 11.5167 11.3509 11.466C11.3298 11.4152 11.2988 11.3687 11.2601 11.3299C11.2211 11.291 11.1748 11.26 11.124 11.2389C11.0732 11.2179 11.0184 11.207 10.9635 11.207H10.0677Z" fill="#725AEC"/>
<path fill-rule="evenodd" clip-rule="evenodd" d="M10.0677 8.33594C10.0128 8.33594 9.95798 8.34691 9.90721 8.36783C9.85645 8.38889 9.80993 8.4199 9.77117 8.45867C9.7324 8.49758 9.70125 8.54395 9.68033 8.59471C9.65926 8.64548 9.64844 8.70033 9.64844 8.75519V9.65104C9.64844 9.70589 9.65941 9.76075 9.68033 9.81151C9.70139 9.86227 9.7324 9.90879 9.77117 9.94755C9.81008 9.98632 9.85645 10.0175 9.90721 10.0385C9.95798 10.0596 10.0128 10.0704 10.0677 10.0704H10.9635C11.0184 10.0704 11.0732 10.0595 11.124 10.0385C11.1748 10.0175 11.2213 9.98647 11.2601 9.94755C11.2988 9.90879 11.33 9.86227 11.3509 9.81151C11.372 9.76075 11.3828 9.70589 11.3828 9.65104V8.75519C11.3828 8.70033 11.3718 8.64548 11.3509 8.59471C11.3298 8.54395 11.2988 8.49743 11.2601 8.45867C11.2211 8.4199 11.1748 8.38875 11.124 8.36783C11.0732 8.34676 11.0184 8.33594 10.9635 8.33594H10.0677Z" fill="#725AEC"/>
<path fill-rule="evenodd" clip-rule="evenodd" d="M10.0677 5.46484C10.0128 5.46484 9.95798 5.47582 9.90721 5.49673C9.85645 5.5178 9.80993 5.54881 9.77117 5.58772C9.7324 5.62649 9.70125 5.673 9.68033 5.72377C9.65926 5.77453 9.64844 5.82938 9.64844 5.88424V6.78215C9.64844 6.837 9.65941 6.89186 9.68033 6.94262C9.70139 6.99338 9.7324 7.0399 9.77117 7.07867C9.81008 7.11743 9.85645 7.14859 9.90721 7.16965C9.95798 7.19072 10.0128 7.20154 10.0677 7.20154H10.9635C11.0184 7.20154 11.0732 7.19057 11.124 7.16965C11.1748 7.14859 11.2213 7.11758 11.2601 7.07867C11.2988 7.0399 11.33 6.99338 11.3509 6.94262C11.372 6.89186 11.3828 6.83701 11.3828 6.78215V5.88424C11.3828 5.82939 11.3718 5.77453 11.3509 5.72377C11.3298 5.673 11.2988 5.62649 11.2601 5.58772C11.2211 5.54896 11.1748 5.5178 11.124 5.49673C11.0732 5.47567 11.0184 5.46484 10.9635 5.46484H10.0677Z" fill="#725AEC"/>
<path fill-rule="evenodd" clip-rule="evenodd" d="M10.0677 2.59375C10.0128 2.59375 9.95798 2.60472 9.90721 2.62564C9.85645 2.6467 9.80993 2.67772 9.77117 2.71663C9.7324 2.7554 9.70125 2.80191 9.68033 2.85267C9.65926 2.90343 9.64844 2.95829 9.64844 3.01315V3.91117C9.64844 3.96602 9.65941 4.02088 9.68033 4.07164C9.70139 4.1224 9.7324 4.16892 9.77117 4.20768C9.81008 4.24645 9.85645 4.27761 9.90721 4.29867C9.95798 4.31974 10.0128 4.33056 10.0677 4.33056H10.9635C11.0184 4.33056 11.0732 4.31959 11.124 4.29867C11.1748 4.27761 11.2213 4.2466 11.2601 4.20768C11.2988 4.16892 11.33 4.1224 11.3509 4.07164C11.372 4.02088 11.3828 3.96602 11.3828 3.91117V3.01315C11.3828 2.95829 11.3718 2.90343 11.3509 2.85267C11.3298 2.80191 11.2988 2.75539 11.2601 2.71663C11.2211 2.67786 11.1748 2.6467 11.124 2.62564C11.0732 2.60457 11.0184 2.59375 10.9635 2.59375H10.0677Z" fill="#725AEC"/>
<path fill-rule="evenodd" clip-rule="evenodd" d="M14.845 14.3711C14.7902 14.3711 14.7353 14.3821 14.6846 14.403C14.6338 14.424 14.5873 14.4551 14.5485 14.494C14.5097 14.5327 14.4786 14.5793 14.4577 14.63C14.4366 14.6808 14.4258 14.7356 14.4258 14.7905V15.6863C14.4258 15.7412 14.4368 15.7961 14.4577 15.8468C14.4787 15.8976 14.5097 15.9441 14.5485 15.9829C14.5874 16.0216 14.6338 16.0528 14.6846 16.0738C14.7353 16.0949 14.7902 16.1057 14.845 16.1057H15.7431C15.7979 16.1057 15.8528 16.0948 15.9035 16.0738C15.9543 16.0528 16.0008 16.0218 16.0396 15.9829C16.0783 15.9441 16.1095 15.8976 16.1304 15.8468C16.1515 15.7961 16.1623 15.7412 16.1623 15.6863V14.7905C16.1623 14.7356 16.1513 14.6808 16.1304 14.63C16.1093 14.5793 16.0783 14.5327 16.0396 14.494C16.0007 14.4551 15.9543 14.424 15.9035 14.403C15.8528 14.3819 15.7979 14.3711 15.7431 14.3711H14.845Z" fill="#725AEC"/>
<path fill-rule="evenodd" clip-rule="evenodd" d="M14.845 11.502C14.7902 11.502 14.7353 11.5129 14.6846 11.5338C14.6338 11.5549 14.5873 11.5859 14.5485 11.6248C14.5097 11.6636 14.4786 11.7101 14.4577 11.7609C14.4366 11.8116 14.4258 11.8665 14.4258 11.9214V12.8172C14.4258 12.8721 14.4368 12.9269 14.4577 12.9777C14.4787 13.0284 14.5097 13.075 14.5485 13.1137C14.5874 13.1525 14.6338 13.1836 14.6846 13.2046C14.7353 13.2256 14.7902 13.2364 14.845 13.2364H15.7431C15.7979 13.2364 15.8528 13.2255 15.9035 13.2046C15.9543 13.1835 16.0008 13.1525 16.0396 13.1137C16.0783 13.0749 16.1095 13.0284 16.1304 12.9777C16.1515 12.9269 16.1623 12.8721 16.1623 12.8172V11.9214C16.1623 11.8665 16.1513 11.8116 16.1304 11.7609C16.1093 11.7101 16.0783 11.6636 16.0396 11.6248C16.0007 11.5861 15.9543 11.5549 15.9035 11.5338C15.8528 11.5128 15.7979 11.502 15.7431 11.502H14.845Z" fill="#725AEC"/>
<path fill-rule="evenodd" clip-rule="evenodd" d="M14.845 8.62891C14.7902 8.62891 14.7353 8.63988 14.6846 8.6608C14.6338 8.68186 14.5873 8.71287 14.5485 8.75178C14.5097 8.79055 14.4786 8.83707 14.4577 8.88783C14.4366 8.93859 14.4258 8.99344 14.4258 9.0483V9.94632C14.4258 10.0012 14.4368 10.056 14.4577 10.1068C14.4787 10.1576 14.5097 10.2041 14.5485 10.2428C14.5874 10.2818 14.6338 10.3128 14.6846 10.3338C14.7353 10.3549 14.7902 10.3657 14.845 10.3657H15.7431C15.7979 10.3657 15.8528 10.3547 15.9035 10.3338C15.9543 10.3128 16.0008 10.2818 16.0396 10.2428C16.0783 10.2041 16.1095 10.1576 16.1304 10.1068C16.1515 10.056 16.1623 10.0012 16.1623 9.94632V9.0483C16.1623 8.99345 16.1513 8.93844 16.1304 8.88783C16.1093 8.83707 16.0783 8.79055 16.0396 8.75178C16.0007 8.71287 15.9543 8.68186 15.9035 8.6608C15.8528 8.63973 15.7979 8.62891 15.7431 8.62891H14.845Z" fill="#725AEC"/>
</svg>
