<svg width="22" height="22" viewBox="0 0 22 22" fill="none" xmlns="http://www.w3.org/2000/svg">
<path d="M18.3621 18.5776C18.3621 18.8612 18.1319 19.0914 17.8483 19.0914C17.1341 19.0914 16.7127 18.8293 16.3859 18.5776C16.3366 18.5395 16.2893 18.5015 16.2431 18.4645C15.941 18.2229 15.7417 18.0638 15.2792 18.0638C14.8168 18.0638 14.6174 18.2231 14.3153 18.4645C14.2691 18.5015 14.2218 18.5395 14.1725 18.5776C13.8458 18.8293 13.4244 19.0914 12.7101 19.0914C11.9959 19.0914 11.5745 18.8293 11.2478 18.5776C11.1985 18.5395 11.1512 18.5015 11.105 18.4645C10.8029 18.2229 10.6035 18.0638 10.1411 18.0638C9.67862 18.0638 9.47928 18.2231 9.17718 18.4645C9.13096 18.5015 9.0837 18.5395 9.03438 18.5776C8.70761 18.8293 8.28624 19.0914 7.572 19.0914C6.85777 19.0914 6.4364 18.8293 6.1086 18.5776C6.05928 18.5395 6.01202 18.5015 5.9658 18.4645C5.6637 18.2229 5.46436 18.0638 5.0019 18.0638C4.53945 18.0638 4.34011 18.2231 4.03801 18.4645C3.99178 18.5015 3.94453 18.5395 3.89521 18.5776C3.56844 18.8293 3.14706 19.0914 2.4318 19.0914C2.14816 19.0914 1.91797 18.8612 1.91797 18.5776C1.91797 18.2939 2.14816 18.0638 2.4318 18.0638C2.89426 18.0638 3.0936 17.9044 3.3957 17.663C3.74505 17.3835 4.17885 17.0361 5.00099 17.0361C5.82312 17.0361 6.25783 17.3834 6.60627 17.663C6.90837 17.9046 7.10771 18.0638 7.57017 18.0638C8.03262 18.0638 8.23196 17.9044 8.53406 17.663C8.88239 17.3835 9.31721 17.0361 10.1393 17.0361C10.9615 17.0361 11.3962 17.3834 11.7446 17.663C12.0467 17.9046 12.2461 18.0638 12.7085 18.0638C13.171 18.0638 13.3703 17.9044 13.6724 17.663C14.0207 17.3835 14.4556 17.0361 15.2777 17.0361C16.0998 17.0361 16.5346 17.3834 16.883 17.663C17.1851 17.9046 17.3844 18.0638 17.8469 18.0638C18.1305 18.0638 18.3607 18.2939 18.3607 18.5776H18.3621ZM17.8483 14.9807C17.3858 14.9807 17.1865 14.8214 16.8844 14.58C16.5361 14.3005 16.1012 13.9531 15.2791 13.9531C14.457 13.9531 14.0223 14.3004 13.6738 14.58C13.3717 14.8216 13.1724 14.9807 12.7099 14.9807C12.2475 14.9807 12.0481 14.8214 11.746 14.58C11.3977 14.3005 10.9629 13.9531 10.1407 13.9531C9.31861 13.9531 8.88391 14.3004 8.53547 14.58C8.23336 14.8216 8.03402 14.9807 7.57157 14.9807C7.10912 14.9807 6.90978 14.8214 6.60767 14.58C6.25832 14.3005 5.82453 13.9531 5.00239 13.9531C4.18025 13.9531 3.74555 14.3004 3.39711 14.58C3.095 14.8216 2.89566 14.9807 2.43321 14.9807C2.14956 14.9807 1.91937 15.2109 1.91937 15.4946C1.91937 15.7782 2.14956 16.0084 2.43321 16.0084C3.14741 16.0084 3.56882 15.7463 3.89661 15.4946C3.94593 15.4565 3.99319 15.4185 4.03941 15.3815C4.34152 15.1399 4.54086 14.9807 5.00331 14.9807C5.46576 14.9807 5.6651 15.1401 5.96721 15.3815C6.01343 15.4185 6.06068 15.4565 6.11 15.4946C6.43677 15.7463 6.85815 16.0084 7.57341 16.0084C8.28867 16.0084 8.70901 15.7463 9.03579 15.4946C9.0851 15.4565 9.13236 15.4185 9.17858 15.3815C9.48069 15.1399 9.68003 14.9807 10.1425 14.9807C10.6049 14.9807 10.8043 15.1401 11.1064 15.3815C11.1526 15.4185 11.1999 15.4565 11.2492 15.4946C11.5759 15.7463 11.9973 16.0084 12.7116 16.0084C13.4258 16.0084 13.8472 15.7463 14.1739 15.4946C14.2232 15.4565 14.2705 15.4185 14.3167 15.3815C14.6188 15.1399 14.8182 14.9807 15.2806 14.9807C15.7431 14.9807 15.9424 15.1401 16.2445 15.3815C16.2907 15.4185 16.338 15.4565 16.3873 15.4946C16.7141 15.7463 17.1355 16.0084 17.8497 16.0084C18.1333 16.0084 18.3635 15.7782 18.3635 15.4946C18.3635 15.2109 18.1333 14.9807 17.8497 14.9807H17.8483ZM1.91937 8.30087C1.91937 6.65865 2.79289 5.15913 4.44439 3.96615C5.65088 3.09571 6.84498 2.69178 6.89533 2.67536C7.0012 2.64038 7.1152 2.64038 7.22005 2.67536C7.2704 2.69176 8.46462 3.09571 9.6711 3.96615C11.3236 5.15933 12.1961 6.65759 12.1961 8.30087C12.1961 8.58451 11.9659 8.81471 11.6823 8.81471H11.1685V12.4116C11.1685 12.6952 10.9383 12.9254 10.6546 12.9254H3.46091C3.17727 12.9254 2.94707 12.6952 2.94707 12.4116V8.81471H2.43324C2.14959 8.81471 1.91937 8.58451 1.91937 8.30087ZM10.1407 8.81471H3.97472V11.8977H6.5439V10.87C6.5439 10.5864 6.77409 10.3562 7.05773 10.3562C7.34138 10.3562 7.57157 10.5864 7.57157 10.87V11.8977H10.1407V8.81471ZM2.98522 7.78703H11.1305C10.7616 5.30215 7.79179 3.99698 7.05803 3.7104C6.32536 3.99611 3.3543 5.30227 2.98551 7.78703H2.98522ZM11.6823 4.70402C11.9659 4.70402 12.1961 4.47382 12.1961 4.19018C12.1961 3.98052 12.5968 3.67634 13.2238 3.67634C13.8507 3.67634 14.2514 3.98051 14.2514 4.19018C14.2514 4.21278 14.2556 4.23434 14.2576 4.2559C13.3698 4.483 12.7099 5.28771 12.7099 6.24553C12.7099 6.52918 12.9401 6.75937 13.2238 6.75937C13.5074 6.75937 13.7376 6.52918 13.7376 6.24553C13.7376 5.86841 13.9421 5.53855 14.2463 5.36065C14.1497 11.2574 12.7531 11.869 12.6667 11.8996C12.4036 11.9211 12.196 12.1422 12.196 12.4114C12.196 12.695 12.4262 12.9252 12.7098 12.9252C12.8476 12.9252 13.5638 12.8656 14.1907 11.6899C14.8638 10.4269 15.2276 8.29744 15.2739 5.35331C15.5832 5.53109 15.7929 5.863 15.7929 6.2453C15.7929 6.52894 16.0231 6.75913 16.3067 6.75913C16.5903 6.75913 16.8205 6.52894 16.8205 6.2453C16.8205 5.28748 16.1608 4.4829 15.2728 4.25567C15.2759 4.2341 15.279 4.21254 15.279 4.18995C15.279 3.98028 15.6798 3.67611 16.3067 3.67611C16.9336 3.67611 17.3344 3.98027 17.3344 4.18995C17.3344 4.47359 17.5646 4.70378 17.8482 4.70378C18.1318 4.70378 18.362 4.47359 18.362 4.18995C18.362 3.3257 17.4587 2.64844 16.3067 2.64844C15.6859 2.64844 15.1392 2.84572 14.7652 3.16227C14.3912 2.84572 13.8444 2.64844 13.2237 2.64844C12.0717 2.64844 11.1683 3.3257 11.1683 4.18995C11.1683 4.47359 11.3985 4.70378 11.6822 4.70378L11.6823 4.70402Z" fill="#6A7381"/>
</svg>
