<svg width="18" height="19" viewBox="0 0 18 19" fill="none" xmlns="http://www.w3.org/2000/svg">
<path fill-rule="evenodd" clip-rule="evenodd" d="M5.7129 0.523438C5.15117 0.523438 4.71669 1.0075 4.71669 1.55882V3.21678H1.6759C1.12952 3.21678 0.679688 3.66647 0.679688 4.21299V17.5627C0.679688 18.1091 1.12937 18.5589 1.6759 18.5589H16.9849C17.5314 18.5589 17.9811 18.1092 17.9811 17.5627V7.15571C17.9811 6.60933 17.5314 6.1595 16.9849 6.1595H13.9441V1.55893C13.9441 1.00581 13.5092 0.52355 12.9479 0.52355H5.71283L5.7129 0.523438ZM5.7129 1.36221H12.948C13.0204 1.36221 13.1052 1.43638 13.1052 1.55882V17.7198H10.923V15.3016C10.923 15.2467 10.9113 15.1951 10.8902 15.1443C10.8692 15.0936 10.8373 15.0456 10.7985 15.0067C10.7597 14.9679 10.7116 14.9359 10.6608 14.915C10.6101 14.8939 10.5584 14.8822 10.5036 14.8822H8.15751C8.10266 14.8822 8.05087 14.8939 8.00026 14.915C7.94949 14.936 7.90152 14.9679 7.8626 15.0067C7.82384 15.0454 7.7918 15.0936 7.77088 15.1443C7.74982 15.1951 7.73812 15.2467 7.73812 15.3016V17.7198H5.55587V1.55882C5.55587 1.43462 5.63706 1.36221 5.71312 1.36221H5.7129ZM2.66551 5.72049H3.56983C3.62468 5.72049 3.67647 5.73219 3.72708 5.75326C3.77784 5.77432 3.82582 5.80621 3.86473 5.84497C3.9035 5.88374 3.93553 5.93187 3.95645 5.98263C3.97752 6.03339 3.98922 6.08503 3.98922 6.13988V7.03779C3.98922 7.09264 3.97752 7.15087 3.95645 7.20163C3.93539 7.25239 3.9035 7.29393 3.86473 7.3327C3.82582 7.37146 3.77784 7.4035 3.72708 7.42442C3.67632 7.44548 3.62468 7.45718 3.56983 7.45718H2.66551C2.61066 7.45718 2.55887 7.44548 2.50826 7.42442C2.4575 7.40335 2.40937 7.37146 2.37061 7.3327C2.33169 7.29393 2.29981 7.25239 2.27889 7.20163C2.25782 7.15087 2.24612 7.09264 2.24612 7.03779V6.13988C2.24612 6.08503 2.25782 6.03339 2.27889 5.98263C2.29995 5.93187 2.33184 5.88389 2.37061 5.84497C2.40937 5.80621 2.4575 5.77417 2.50826 5.75326C2.55902 5.73219 2.61066 5.72049 2.66551 5.72049ZM13.9443 6.99842H16.9851C17.0723 6.99842 17.1424 7.06849 17.1424 7.15568V17.5627C17.1424 17.6498 17.0723 17.7199 16.9851 17.7199H13.9443V6.99836V6.99842ZM2.66551 8.59085H3.56983C3.62468 8.59085 3.67647 8.60255 3.72708 8.62362C3.77784 8.64468 3.82582 8.67658 3.86473 8.71534C3.9035 8.75411 3.93553 8.80223 3.95645 8.85299C3.97752 8.90375 3.98922 8.95539 3.98922 9.01025V9.90815C3.98922 9.96301 3.97752 10.0212 3.95645 10.072C3.93539 10.1228 3.9035 10.1707 3.86473 10.2096C3.82582 10.2484 3.77784 10.2739 3.72708 10.2948C3.67632 10.3158 3.62468 10.3275 3.56983 10.3275H2.66551C2.61066 10.3275 2.55887 10.3158 2.50826 10.2948C2.4575 10.2737 2.40937 10.2484 2.37061 10.2096C2.33169 10.1709 2.29981 10.1228 2.27889 10.072C2.25782 10.0212 2.24612 9.96301 2.24612 9.90815V9.01025C2.24612 8.95539 2.25782 8.9036 2.27889 8.85299C2.29995 8.80223 2.33184 8.75411 2.37061 8.71534C2.40937 8.67657 2.4575 8.64454 2.50826 8.62362C2.55902 8.60255 2.61066 8.59085 2.66551 8.59085ZM2.66551 11.4612H3.56983C3.62468 11.4612 3.67647 11.4729 3.72708 11.494C3.77784 11.515 3.82582 11.5469 3.86473 11.5857C3.9035 11.6245 3.93553 11.6726 3.95645 11.7234C3.97752 11.7741 3.98922 11.8258 3.98922 11.8806V12.7785C3.98922 12.8334 3.97752 12.8916 3.95645 12.9424C3.93539 12.9931 3.9035 13.0412 3.86473 13.08C3.82582 13.1188 3.77784 13.1442 3.72708 13.1651C3.67632 13.1862 3.62468 13.1979 3.56983 13.1979H2.66551C2.61066 13.1979 2.55887 13.1862 2.50826 13.1651C2.4575 13.1441 2.40937 13.1188 2.37061 13.08C2.33169 13.0412 2.29981 12.9931 2.27889 12.9424C2.25782 12.8916 2.24612 12.8334 2.24612 12.7785V11.8806C2.24612 11.8258 2.25782 11.7741 2.27889 11.7234C2.29995 11.6726 2.33184 11.6246 2.37061 11.5857C2.40937 11.5469 2.4575 11.5149 2.50826 11.494C2.55902 11.4729 2.61066 11.4612 2.66551 11.4612ZM2.66551 14.3382H3.56983C3.62468 14.3382 3.67647 14.3434 3.72708 14.3644C3.77784 14.3854 3.82582 14.4173 3.86473 14.4561C3.9035 14.4948 3.93553 14.543 3.95645 14.5937C3.97752 14.6445 3.98922 14.7027 3.98922 14.7576V15.6489C3.98922 15.7037 3.97752 15.762 3.95645 15.8127C3.93539 15.8635 3.9035 15.9116 3.86473 15.9504C3.82582 15.9891 3.77784 16.0146 3.72708 16.0355C3.67632 16.0566 3.62468 16.0683 3.56983 16.0683H2.66551C2.61066 16.0683 2.55887 16.0566 2.50826 16.0355C2.4575 16.0144 2.40937 15.9891 2.37061 15.9504C2.33169 15.9116 2.29981 15.8635 2.27889 15.8127C2.25782 15.762 2.24612 15.7037 2.24612 15.6489V14.7576C2.24612 14.7027 2.25782 14.6445 2.27889 14.5937C2.29995 14.543 2.33184 14.495 2.37061 14.4561C2.40937 14.4173 2.4575 14.3853 2.50826 14.3644C2.55902 14.3433 2.61066 14.3382 2.66551 14.3382Z" fill="#725AEC"/>
<path fill-rule="evenodd" clip-rule="evenodd" d="M7.44659 11.207C7.39174 11.207 7.33688 11.218 7.28612 11.2389C7.23536 11.26 7.18884 11.291 7.15008 11.3299C7.11131 11.3687 7.08015 11.4152 7.05923 11.466C7.03817 11.5167 7.02734 11.5716 7.02734 11.6264V12.5223C7.02734 12.5771 7.03832 12.632 7.05923 12.6827C7.0803 12.7335 7.11131 12.78 7.15008 12.8188C7.18899 12.8577 7.23536 12.8887 7.28612 12.9098C7.33688 12.9308 7.39174 12.9417 7.44659 12.9417H8.34461C8.39947 12.9417 8.45433 12.9307 8.50509 12.9098C8.55585 12.8887 8.60237 12.8577 8.64113 12.8188C8.6799 12.78 8.71106 12.7335 8.73198 12.6827C8.75304 12.632 8.76386 12.5771 8.76386 12.5223V11.6264C8.76386 11.5716 8.75289 11.5167 8.73198 11.466C8.71091 11.4152 8.6799 11.3687 8.64113 11.3299C8.60222 11.291 8.55585 11.26 8.50509 11.2389C8.45433 11.2179 8.39947 11.207 8.34461 11.207H7.44659Z" fill="#725AEC"/>
<path fill-rule="evenodd" clip-rule="evenodd" d="M7.44659 8.33594C7.39174 8.33594 7.33688 8.34691 7.28612 8.36783C7.23536 8.38889 7.18884 8.4199 7.15008 8.45867C7.11131 8.49758 7.08015 8.54395 7.05923 8.59471C7.03817 8.64548 7.02734 8.70033 7.02734 8.75519V9.65104C7.02734 9.70589 7.03832 9.76075 7.05923 9.81151C7.0803 9.86227 7.11131 9.90879 7.15008 9.94755C7.18899 9.98632 7.23536 10.0175 7.28612 10.0385C7.33688 10.0596 7.39174 10.0704 7.44659 10.0704H8.34461C8.39947 10.0704 8.45433 10.0595 8.50509 10.0385C8.55585 10.0175 8.60237 9.98647 8.64113 9.94755C8.6799 9.90879 8.71106 9.86227 8.73198 9.81151C8.75304 9.76075 8.76386 9.70589 8.76386 9.65104V8.75519C8.76386 8.70033 8.75289 8.64548 8.73198 8.59471C8.71091 8.54395 8.6799 8.49743 8.64113 8.45867C8.60222 8.4199 8.55585 8.38875 8.50509 8.36783C8.45433 8.34676 8.39947 8.33594 8.34461 8.33594H7.44659Z" fill="#725AEC"/>
<path fill-rule="evenodd" clip-rule="evenodd" d="M7.44659 5.46484C7.39174 5.46484 7.33688 5.47582 7.28612 5.49673C7.23536 5.5178 7.18884 5.54881 7.15008 5.58772C7.11131 5.62649 7.08015 5.673 7.05923 5.72377C7.03817 5.77453 7.02734 5.82938 7.02734 5.88424V6.78215C7.02734 6.837 7.03832 6.89186 7.05923 6.94262C7.0803 6.99338 7.11131 7.0399 7.15008 7.07867C7.18899 7.11743 7.23536 7.14859 7.28612 7.16965C7.33688 7.19072 7.39174 7.20154 7.44659 7.20154H8.34461C8.39947 7.20154 8.45433 7.19057 8.50509 7.16965C8.55585 7.14859 8.60237 7.11758 8.64113 7.07867C8.6799 7.0399 8.71106 6.99338 8.73198 6.94262C8.75304 6.89186 8.76387 6.83701 8.76387 6.78215V5.88424C8.76387 5.82939 8.75289 5.77453 8.73198 5.72377C8.71091 5.673 8.6799 5.62649 8.64113 5.58772C8.60222 5.54896 8.55585 5.5178 8.50509 5.49673C8.45433 5.47567 8.39947 5.46484 8.34461 5.46484H7.44659Z" fill="#725AEC"/>
<path fill-rule="evenodd" clip-rule="evenodd" d="M7.44659 2.59375C7.39174 2.59375 7.33688 2.60472 7.28612 2.62564C7.23536 2.6467 7.18884 2.67772 7.15008 2.71663C7.11131 2.7554 7.08015 2.80191 7.05923 2.85267C7.03817 2.90343 7.02734 2.95829 7.02734 3.01315V3.91117C7.02734 3.96602 7.03832 4.02088 7.05923 4.07164C7.0803 4.1224 7.11131 4.16892 7.15008 4.20768C7.18899 4.24645 7.23536 4.27761 7.28612 4.29867C7.33688 4.31974 7.39174 4.33056 7.44659 4.33056H8.34461C8.39947 4.33056 8.45433 4.31959 8.50509 4.29867C8.55585 4.27761 8.60237 4.2466 8.64113 4.20768C8.6799 4.16892 8.71106 4.1224 8.73198 4.07164C8.75304 4.02088 8.76386 3.96602 8.76386 3.91117V3.01315C8.76386 2.95829 8.75289 2.90343 8.73198 2.85267C8.71091 2.80191 8.6799 2.75539 8.64113 2.71663C8.60222 2.67786 8.55585 2.6467 8.50509 2.62564C8.45433 2.60457 8.39947 2.59375 8.34461 2.59375H7.44659Z" fill="#725AEC"/>
<path fill-rule="evenodd" clip-rule="evenodd" d="M10.3177 11.207C10.2628 11.207 10.208 11.218 10.1572 11.2389C10.1065 11.26 10.0599 11.291 10.0212 11.3299C9.9824 11.3687 9.95125 11.4152 9.93033 11.466C9.90926 11.5167 9.89844 11.5716 9.89844 11.6264V12.5223C9.89844 12.5771 9.90941 12.632 9.93033 12.6827C9.95139 12.7335 9.9824 12.78 10.0212 12.8188C10.0601 12.8577 10.1065 12.8887 10.1572 12.9098C10.208 12.9308 10.2628 12.9417 10.3177 12.9417H11.2135C11.2684 12.9417 11.3232 12.9307 11.374 12.9098C11.4248 12.8887 11.4713 12.8577 11.5101 12.8188C11.5488 12.78 11.58 12.7335 11.6009 12.6827C11.622 12.632 11.6328 12.5771 11.6328 12.5223V11.6264C11.6328 11.5716 11.6218 11.5167 11.6009 11.466C11.5798 11.4152 11.5488 11.3687 11.5101 11.3299C11.4711 11.291 11.4248 11.26 11.374 11.2389C11.3232 11.2179 11.2684 11.207 11.2135 11.207H10.3177Z" fill="#725AEC"/>
<path fill-rule="evenodd" clip-rule="evenodd" d="M10.3177 8.33594C10.2628 8.33594 10.208 8.34691 10.1572 8.36783C10.1065 8.38889 10.0599 8.4199 10.0212 8.45867C9.9824 8.49758 9.95125 8.54395 9.93033 8.59471C9.90926 8.64548 9.89844 8.70033 9.89844 8.75519V9.65104C9.89844 9.70589 9.90941 9.76075 9.93033 9.81151C9.95139 9.86227 9.9824 9.90879 10.0212 9.94755C10.0601 9.98632 10.1065 10.0175 10.1572 10.0385C10.208 10.0596 10.2628 10.0704 10.3177 10.0704H11.2135C11.2684 10.0704 11.3232 10.0595 11.374 10.0385C11.4248 10.0175 11.4713 9.98647 11.5101 9.94755C11.5488 9.90879 11.58 9.86227 11.6009 9.81151C11.622 9.76075 11.6328 9.70589 11.6328 9.65104V8.75519C11.6328 8.70033 11.6218 8.64548 11.6009 8.59471C11.5798 8.54395 11.5488 8.49743 11.5101 8.45867C11.4711 8.4199 11.4248 8.38875 11.374 8.36783C11.3232 8.34676 11.2684 8.33594 11.2135 8.33594H10.3177Z" fill="#725AEC"/>
<path fill-rule="evenodd" clip-rule="evenodd" d="M10.3177 5.46484C10.2628 5.46484 10.208 5.47582 10.1572 5.49673C10.1065 5.5178 10.0599 5.54881 10.0212 5.58772C9.9824 5.62649 9.95125 5.673 9.93033 5.72377C9.90926 5.77453 9.89844 5.82938 9.89844 5.88424V6.78215C9.89844 6.837 9.90941 6.89186 9.93033 6.94262C9.95139 6.99338 9.9824 7.0399 10.0212 7.07867C10.0601 7.11743 10.1065 7.14859 10.1572 7.16965C10.208 7.19072 10.2628 7.20154 10.3177 7.20154H11.2135C11.2684 7.20154 11.3232 7.19057 11.374 7.16965C11.4248 7.14859 11.4713 7.11758 11.5101 7.07867C11.5488 7.0399 11.58 6.99338 11.6009 6.94262C11.622 6.89186 11.6328 6.83701 11.6328 6.78215V5.88424C11.6328 5.82939 11.6218 5.77453 11.6009 5.72377C11.5798 5.673 11.5488 5.62649 11.5101 5.58772C11.4711 5.54896 11.4248 5.5178 11.374 5.49673C11.3232 5.47567 11.2684 5.46484 11.2135 5.46484H10.3177Z" fill="#725AEC"/>
<path fill-rule="evenodd" clip-rule="evenodd" d="M10.3177 2.59375C10.2628 2.59375 10.208 2.60472 10.1572 2.62564C10.1065 2.6467 10.0599 2.67772 10.0212 2.71663C9.9824 2.7554 9.95125 2.80191 9.93033 2.85267C9.90926 2.90343 9.89844 2.95829 9.89844 3.01315V3.91117C9.89844 3.96602 9.90941 4.02088 9.93033 4.07164C9.95139 4.1224 9.9824 4.16892 10.0212 4.20768C10.0601 4.24645 10.1065 4.27761 10.1572 4.29867C10.208 4.31974 10.2628 4.33056 10.3177 4.33056H11.2135C11.2684 4.33056 11.3232 4.31959 11.374 4.29867C11.4248 4.27761 11.4713 4.2466 11.5101 4.20768C11.5488 4.16892 11.58 4.1224 11.6009 4.07164C11.622 4.02088 11.6328 3.96602 11.6328 3.91117V3.01315C11.6328 2.95829 11.6218 2.90343 11.6009 2.85267C11.5798 2.80191 11.5488 2.75539 11.5101 2.71663C11.4711 2.67786 11.4248 2.6467 11.374 2.62564C11.3232 2.60457 11.2684 2.59375 11.2135 2.59375H10.3177Z" fill="#725AEC"/>
<path fill-rule="evenodd" clip-rule="evenodd" d="M15.095 14.3711C15.0402 14.3711 14.9853 14.3821 14.9346 14.403C14.8838 14.424 14.8373 14.4551 14.7985 14.494C14.7597 14.5327 14.7286 14.5793 14.7077 14.63C14.6866 14.6808 14.6758 14.7356 14.6758 14.7905V15.6863C14.6758 15.7412 14.6868 15.7961 14.7077 15.8468C14.7287 15.8976 14.7597 15.9441 14.7985 15.9829C14.8374 16.0216 14.8838 16.0528 14.9346 16.0738C14.9853 16.0949 15.0402 16.1057 15.095 16.1057H15.9931C16.0479 16.1057 16.1028 16.0948 16.1535 16.0738C16.2043 16.0528 16.2508 16.0218 16.2896 15.9829C16.3283 15.9441 16.3595 15.8976 16.3804 15.8468C16.4015 15.7961 16.4123 15.7412 16.4123 15.6863V14.7905C16.4123 14.7356 16.4013 14.6808 16.3804 14.63C16.3593 14.5793 16.3283 14.5327 16.2896 14.494C16.2507 14.4551 16.2043 14.424 16.1535 14.403C16.1028 14.3819 16.0479 14.3711 15.9931 14.3711H15.095Z" fill="#725AEC"/>
<path fill-rule="evenodd" clip-rule="evenodd" d="M15.095 11.502C15.0402 11.502 14.9853 11.5129 14.9346 11.5338C14.8838 11.5549 14.8373 11.5859 14.7985 11.6248C14.7597 11.6636 14.7286 11.7101 14.7077 11.7609C14.6866 11.8116 14.6758 11.8665 14.6758 11.9214V12.8172C14.6758 12.8721 14.6868 12.9269 14.7077 12.9777C14.7287 13.0284 14.7597 13.075 14.7985 13.1137C14.8374 13.1525 14.8838 13.1836 14.9346 13.2046C14.9853 13.2256 15.0402 13.2364 15.095 13.2364H15.9931C16.0479 13.2364 16.1028 13.2255 16.1535 13.2046C16.2043 13.1835 16.2508 13.1525 16.2896 13.1137C16.3283 13.0749 16.3595 13.0284 16.3804 12.9777C16.4015 12.9269 16.4123 12.8721 16.4123 12.8172V11.9214C16.4123 11.8665 16.4013 11.8116 16.3804 11.7609C16.3593 11.7101 16.3283 11.6636 16.2896 11.6248C16.2507 11.5861 16.2043 11.5549 16.1535 11.5338C16.1028 11.5128 16.0479 11.502 15.9931 11.502H15.095Z" fill="#725AEC"/>
<path fill-rule="evenodd" clip-rule="evenodd" d="M15.095 8.62891C15.0402 8.62891 14.9853 8.63988 14.9346 8.6608C14.8838 8.68186 14.8373 8.71287 14.7985 8.75178C14.7597 8.79055 14.7286 8.83707 14.7077 8.88783C14.6866 8.93859 14.6758 8.99344 14.6758 9.0483V9.94632C14.6758 10.0012 14.6868 10.056 14.7077 10.1068C14.7287 10.1576 14.7597 10.2041 14.7985 10.2428C14.8374 10.2818 14.8838 10.3128 14.9346 10.3338C14.9853 10.3549 15.0402 10.3657 15.095 10.3657H15.9931C16.0479 10.3657 16.1028 10.3547 16.1535 10.3338C16.2043 10.3128 16.2508 10.2818 16.2896 10.2428C16.3283 10.2041 16.3595 10.1576 16.3804 10.1068C16.4015 10.056 16.4123 10.0012 16.4123 9.94632V9.0483C16.4123 8.99345 16.4013 8.93844 16.3804 8.88783C16.3593 8.83707 16.3283 8.79055 16.2896 8.75178C16.2507 8.71287 16.2043 8.68186 16.1535 8.6608C16.1028 8.63973 16.0479 8.62891 15.9931 8.62891H15.095Z" fill="#725AEC"/>
</svg>
