<svg width="21" height="22" viewBox="0 0 21 22" fill="none" xmlns="http://www.w3.org/2000/svg">
<path d="M17.9442 18.5776C17.9442 18.8612 17.714 19.0914 17.4303 19.0914C16.7161 19.0914 16.2947 18.8293 15.9679 18.5776C15.9186 18.5395 15.8714 18.5015 15.8251 18.4645C15.523 18.2229 15.3237 18.0638 14.8613 18.0638C14.3988 18.0638 14.1995 18.2231 13.8974 18.4645C13.8511 18.5015 13.8039 18.5395 13.7546 18.5776C13.4278 18.8293 13.0064 19.0914 12.2922 19.0914C11.578 19.0914 11.1566 18.8293 10.8298 18.5776C10.7805 18.5395 10.7332 18.5015 10.687 18.4645C10.3849 18.2229 10.1856 18.0638 9.72311 18.0638C9.26065 18.0638 9.06132 18.2231 8.75921 18.4645C8.71299 18.5015 8.66573 18.5395 8.61641 18.5776C8.28964 18.8293 7.86827 19.0914 7.15404 19.0914C6.4398 19.0914 6.01843 18.8293 5.69063 18.5776C5.64131 18.5395 5.59405 18.5015 5.54783 18.4645C5.24573 18.2229 5.04639 18.0638 4.58394 18.0638C4.12148 18.0638 3.92214 18.2231 3.62004 18.4645C3.57382 18.5015 3.52656 18.5395 3.47724 18.5776C3.15047 18.8293 2.7291 19.0914 2.01384 19.0914C1.73019 19.0914 1.5 18.8612 1.5 18.5776C1.5 18.2939 1.73019 18.0638 2.01384 18.0638C2.47629 18.0638 2.67563 17.9044 2.97773 17.663C3.32708 17.3835 3.76088 17.0361 4.58302 17.0361C5.40515 17.0361 5.83986 17.3834 6.1883 17.663C6.49041 17.9046 6.68974 18.0638 7.1522 18.0638C7.61465 18.0638 7.81399 17.9044 8.1161 17.663C8.46442 17.3835 8.89924 17.0361 9.72138 17.0361C10.5435 17.0361 10.9782 17.3834 11.3267 17.663C11.6288 17.9046 11.8281 18.0638 12.2906 18.0638C12.753 18.0638 12.9524 17.9044 13.2545 17.663C13.6028 17.3835 14.0376 17.0361 14.8597 17.0361C15.6819 17.0361 16.1166 17.3834 16.465 17.663C16.7671 17.9046 16.9665 18.0638 17.4289 18.0638C17.7126 18.0638 17.9428 18.2939 17.9428 18.5776H17.9442ZM17.4303 14.9807C16.9679 14.9807 16.7685 14.8214 16.4664 14.58C16.1181 14.3005 15.6833 13.9531 14.8611 13.9531C14.039 13.9531 13.6043 14.3004 13.2559 14.58C12.9538 14.8216 12.7544 14.9807 12.292 14.9807C11.8295 14.9807 11.6302 14.8214 11.3281 14.58C10.9797 14.3005 10.5449 13.9531 9.72278 13.9531C8.90064 13.9531 8.46594 14.3004 8.1175 14.58C7.81539 14.8216 7.61605 14.9807 7.1536 14.9807C6.69115 14.9807 6.49181 14.8214 6.1897 14.58C5.84035 14.3005 5.40656 13.9531 4.58442 13.9531C3.76228 13.9531 3.32758 14.3004 2.97914 14.58C2.67703 14.8216 2.47769 14.9807 2.01524 14.9807C1.7316 14.9807 1.5014 15.2109 1.5014 15.4946C1.5014 15.7782 1.7316 16.0084 2.01524 16.0084C2.72944 16.0084 3.15085 15.7463 3.47864 15.4946C3.52796 15.4565 3.57522 15.4185 3.62144 15.3815C3.92355 15.1399 4.12289 14.9807 4.58534 14.9807C5.04779 14.9807 5.24713 15.1401 5.54924 15.3815C5.59546 15.4185 5.64271 15.4565 5.69203 15.4946C6.0188 15.7463 6.44018 16.0084 7.15544 16.0084C7.8707 16.0084 8.29105 15.7463 8.61782 15.4946C8.66714 15.4565 8.71439 15.4185 8.76061 15.3815C9.06272 15.1399 9.26206 14.9807 9.72451 14.9807C10.187 14.9807 10.3863 15.1401 10.6884 15.3815C10.7346 15.4185 10.7819 15.4565 10.8312 15.4946C11.158 15.7463 11.5794 16.0084 12.2936 16.0084C13.0078 16.0084 13.4292 15.7463 13.756 15.4946C13.8053 15.4565 13.8525 15.4185 13.8988 15.3815C14.2009 15.1399 14.4002 14.9807 14.8627 14.9807C15.3251 14.9807 15.5244 15.1401 15.8266 15.3815C15.8728 15.4185 15.92 15.4565 15.9693 15.4946C16.2961 15.7463 16.7175 16.0084 17.4317 16.0084C17.7154 16.0084 17.9456 15.7782 17.9456 15.4946C17.9456 15.2109 17.7154 14.9807 17.4317 14.9807H17.4303ZM1.5014 8.30087C1.5014 6.65865 2.37492 5.15913 4.02642 3.96615C5.23291 3.09571 6.42701 2.69178 6.47736 2.67536C6.58323 2.64038 6.69724 2.64038 6.80208 2.67536C6.85243 2.69176 8.04665 3.09571 9.25314 3.96615C10.9057 5.15933 11.7782 6.65759 11.7782 8.30087C11.7782 8.58451 11.548 8.81471 11.2643 8.81471H10.7505V12.4116C10.7505 12.6952 10.5203 12.9254 10.2366 12.9254H3.04294C2.7593 12.9254 2.52911 12.6952 2.52911 12.4116V8.81471H2.01527C1.73163 8.81471 1.5014 8.58451 1.5014 8.30087ZM9.72278 8.81471H3.55675V11.8977H6.12593V10.87C6.12593 10.5864 6.35612 10.3562 6.63976 10.3562C6.92341 10.3562 7.1536 10.5864 7.1536 10.87V11.8977H9.72278V8.81471ZM2.56725 7.78703H10.7126C10.3436 5.30215 7.37382 3.99698 6.64006 3.7104C5.90739 3.99611 2.93633 5.30227 2.56754 7.78703H2.56725ZM11.2643 4.70402C11.5479 4.70402 11.7781 4.47382 11.7781 4.19018C11.7781 3.98052 12.1789 3.67634 12.8058 3.67634C13.4327 3.67634 13.8335 3.98051 13.8335 4.19018C13.8335 4.21278 13.8376 4.23434 13.8397 4.2559C12.9518 4.483 12.292 5.28771 12.292 6.24553C12.292 6.52918 12.5222 6.75937 12.8058 6.75937C13.0894 6.75937 13.3196 6.52918 13.3196 6.24553C13.3196 5.86841 13.5241 5.53855 13.8283 5.36065C13.7317 11.2574 12.3351 11.869 12.2487 11.8996C11.9856 11.9211 11.778 12.1422 11.778 12.4114C11.778 12.695 12.0082 12.9252 12.2918 12.9252C12.4296 12.9252 13.1459 12.8656 13.7727 11.6899C14.4458 10.4269 14.8096 8.29744 14.8559 5.35331C15.1652 5.53109 15.3749 5.863 15.3749 6.2453C15.3749 6.52894 15.6051 6.75913 15.8887 6.75913C16.1724 6.75913 16.4026 6.52894 16.4026 6.2453C16.4026 5.28748 15.7428 4.4829 14.8549 4.25567C14.858 4.2341 14.8611 4.21254 14.8611 4.18995C14.8611 3.98028 15.2618 3.67611 15.8887 3.67611C16.5157 3.67611 16.9164 3.98027 16.9164 4.18995C16.9164 4.47359 17.1466 4.70378 17.4302 4.70378C17.7139 4.70378 17.9441 4.47359 17.9441 4.18995C17.9441 3.3257 17.0407 2.64844 15.8887 2.64844C15.268 2.64844 14.7212 2.84572 14.3472 3.16227C13.9732 2.84572 13.4264 2.64844 12.8057 2.64844C11.6537 2.64844 10.7504 3.3257 10.7504 4.18995C10.7504 4.47359 10.9806 4.70378 11.2642 4.70378L11.2643 4.70402Z" fill="#6A7381"/>
</svg>
