<svg width="20" height="21" viewBox="0 0 20 21" fill="none" xmlns="http://www.w3.org/2000/svg">
<path d="M16.7287 7.05702H14.8024L13.9706 6.22525C13.9285 6.18318 13.8715 6.15954 13.812 6.15954H12.4637C12.4638 6.14752 12.4642 6.1356 12.4642 6.12369C12.4642 5.77291 12.3948 5.43115 12.2588 5.10993C12.1268 4.78972 11.9306 4.49925 11.6753 4.24642C11.1668 3.74489 10.4913 3.46875 9.77335 3.46875C9.05538 3.46875 8.37987 3.74491 7.87144 4.24631C7.57566 4.53779 7.3537 4.89247 7.22378 5.27761C7.19523 5.28882 7.16889 5.30565 7.14675 5.32779L5.6418 6.83266H2.81812C2.69421 6.83266 2.59375 6.93312 2.59375 7.05703V9.74943C2.59375 9.80892 2.61739 9.86602 2.65946 9.90808L4.45439 11.703C4.49646 11.7451 4.55355 11.7687 4.61305 11.7687H5.8663L6.69807 12.6005C6.74014 12.6426 6.79723 12.6662 6.85673 12.6662H8.10998L9.16611 13.7223C9.20818 13.7644 9.26528 13.788 9.32477 13.788H11.3441C11.4036 13.788 11.4607 13.7644 11.5027 13.7223L13.0076 12.2175H14.7096C14.7691 12.2175 14.8262 12.1938 14.8682 12.1518L16.8875 10.1325C16.9296 10.0904 16.9533 10.0333 16.9533 9.9738V7.28141C16.9533 7.1575 16.8528 7.05704 16.7289 7.05704L16.7287 7.05702ZM9.54746 13.3393V12.4418H11.1212V13.3393H9.54746ZM13.1373 11.7687V10.8713H14.4867V11.7687H13.1373ZM7.07943 12.2175V11.32H7.9801V12.2175H7.07943ZM4.83577 11.32V10.4225H5.73644V11.32H4.83577ZM3.04242 9.65647V8.94491L4.39021 10.2927V11.0043L3.04242 9.65647ZM6.18202 11.4498V10.7383L6.63396 11.1902V11.9018L6.18202 11.4498ZM8.42568 12.3473V11.6357L9.10199 12.312V13.0236L8.42568 12.3473ZM11.5668 12.312L12.6919 11.187V11.8985L11.5668 13.0236V12.312ZM14.9323 10.7415L16.5045 9.1693V9.88086L14.9323 11.453V10.7415ZM8.18439 4.56355C8.60907 4.14477 9.1735 3.9142 9.7736 3.9142C10.3737 3.9142 10.9381 4.14478 11.3624 4.56317C11.5748 4.77361 11.738 5.01459 11.848 5.28145C11.9614 5.54938 12.0189 5.83275 12.0189 6.12353C12.0189 6.19945 12.0169 6.27488 12.0134 6.3487C12.0122 6.35641 12.0113 6.36412 12.0109 6.37213C11.9486 7.56528 11.4423 8.68711 10.5853 9.53122L9.77362 10.3316L8.9619 9.53111C8.50434 9.07997 8.14807 8.55431 7.90276 7.96827C7.65535 7.38019 7.52995 6.75948 7.52995 6.12356C7.52995 5.92684 7.55659 5.73304 7.60898 5.54741C7.61128 5.5393 7.61299 5.53109 7.61439 5.52287C7.71605 5.16268 7.91268 4.83134 8.18441 4.56351L8.18439 4.56355ZM3.04268 7.28134H5.73508C5.79458 7.28134 5.85167 7.2577 5.89374 7.21563L7.08309 6.02628C7.08188 6.05864 7.08128 6.09109 7.08128 6.12364C7.08128 6.81977 7.21851 7.499 7.48904 8.14204C7.75728 8.78278 8.14681 9.35773 8.64682 9.85085L9.61611 10.8066C9.70345 10.8927 9.84378 10.8927 9.93123 10.8066L10.9004 9.85085C11.7863 8.97833 12.3294 7.83375 12.4435 6.60817H13.7193L14.5511 7.43994C14.5932 7.48201 14.6503 7.50565 14.7098 7.50565H16.5047V8.53453L14.6168 10.4224H12.9148C12.8553 10.4224 12.7982 10.4461 12.7562 10.4881L11.2513 11.993H9.4179L8.36176 10.9369C8.31969 10.8948 8.2626 10.8712 8.2031 10.8712H6.94986L6.11808 10.0394C6.07602 9.99731 6.01892 9.97367 5.95942 9.97367H4.70618L3.04266 8.31015L3.04268 7.28134Z" fill="#6A7381"/>
<path d="M9.7721 7.72975C10.6372 7.72975 11.3411 7.02591 11.3411 6.16077C11.3411 5.29564 10.6372 4.5918 9.7721 4.5918C8.90697 4.5918 8.20312 5.29564 8.20312 6.16077C8.20312 7.02591 8.90697 7.72975 9.7721 7.72975ZM9.7721 5.03735C10.3915 5.03735 10.8955 5.54127 10.8955 6.16077C10.8955 6.78018 10.3915 7.2842 9.7721 7.2842C9.1527 7.2842 8.64868 6.78018 8.64868 6.16077C8.64868 5.54137 9.1527 5.03735 9.7721 5.03735Z" fill="#6A7381"/>
<path d="M14.9688 15.5443C14.5997 15.1655 14.0856 14.9784 13.5616 15.0309C13.3653 15.0506 13.1751 15.1036 12.9946 15.1882L11.2506 16.0109C11.2181 15.8813 11.1624 15.7552 11.0844 15.6404C10.9087 15.3829 10.6423 15.2089 10.3354 15.1522L9.14285 14.9341C8.90672 14.7505 8.05484 14.1462 7.13456 14.1733C6.61322 14.1877 6.11868 14.4041 5.75902 14.6136C5.6247 14.3532 5.37191 14.1596 5.06601 14.112L3.78955 13.9154C3.49951 13.8701 3.21265 13.9601 2.99947 14.1614C2.7863 14.3627 2.68171 14.6456 2.71094 14.9373L2.99856 17.8066C3.05018 18.3215 3.51176 18.699 4.02672 18.6474L4.97669 18.5522C5.32262 18.5175 5.61073 18.2969 5.74332 17.9942L8.65911 18.9248C9.03603 19.0435 9.42842 19.0823 9.81302 19.0438C10.2157 19.0034 10.6087 18.8793 10.9633 18.6716L14.8512 16.4127C15.0003 16.326 15.0988 16.178 15.1221 16.0061C15.1453 15.8343 15.0894 15.6666 14.9689 15.5443L14.9688 15.5443ZM4.7126 17.2595C4.72865 17.4196 4.61261 17.5629 4.45131 17.579C4.29125 17.5951 4.14783 17.4778 4.13179 17.3177L4.07253 16.7265C4.05649 16.5665 4.17378 16.4231 4.33383 16.407C4.49514 16.3909 4.6373 16.5083 4.65334 16.6683L4.7126 17.2595ZM10.6702 18.168C10.1171 18.4894 9.44782 18.5629 8.83636 18.3674L5.82525 17.4073L5.85946 15.2385C6.16128 15.0375 6.65086 14.7707 7.15136 14.757C7.98713 14.7319 8.82187 15.4252 8.83025 15.4309C8.86882 15.4648 8.91658 15.4861 8.96577 15.4955L10.23 15.726C10.3829 15.755 10.514 15.841 10.6011 15.9691C10.6837 16.0898 10.7162 16.2326 10.694 16.3756C10.6882 16.3957 10.6838 16.417 10.6808 16.4382C10.6734 16.4689 10.6483 16.4909 10.6041 16.4928L7.6688 16.2656C7.5085 16.253 7.36805 16.374 7.35551 16.5343C7.34286 16.6946 7.46254 16.8352 7.62417 16.8476L10.5581 17.0749C10.5949 17.0778 10.6353 17.0776 10.674 17.0737C10.9193 17.0492 11.1289 16.8899 11.2178 16.6725L13.243 15.716C13.3638 15.6595 13.4906 15.6246 13.6197 15.6117C13.9541 15.5782 14.2823 15.6926 14.526 15.9263L10.6702 18.168Z" fill="#6A7381"/>
</svg>
