<svg width="20" height="21" viewBox="0 0 20 21" fill="none" xmlns="http://www.w3.org/2000/svg">
<path d="M2.45219 18.6374H17.4905C17.6711 18.6374 17.8175 18.4911 17.8175 18.3104C17.8175 18.1298 17.6711 17.9835 17.4905 17.9835H16.4593V16.2122C17.2618 16.0116 17.8517 15.0841 17.8517 13.9355C17.8517 13.0849 17.3186 9.78785 16.1324 9.78785C14.9462 9.78785 14.413 13.0849 14.413 13.9355C14.413 15.0841 15.0031 16.0116 15.8054 16.2122V17.9835H13.6798V4.80636H13.7402C14.216 4.80636 14.6033 4.41764 14.6033 3.94V3.76675C14.6033 3.28911 14.216 2.90039 13.7402 2.90039H5.87767C5.40003 2.90039 5.0113 3.28911 5.0113 3.76675V3.94012C5.0113 4.41776 5.40003 4.80648 5.87767 4.80648H5.93577V9.18884L3.05315 10.4093C2.93231 10.4605 2.85369 10.5791 2.85369 10.7104V17.9833H2.45195C2.27135 17.9833 2.125 18.1297 2.125 18.3103C2.125 18.4909 2.27145 18.6372 2.45195 18.6372L2.45219 18.6374ZM15.0671 13.9357C15.0671 12.5758 15.775 10.451 16.1327 10.4416C16.4902 10.4518 17.1983 12.5768 17.1983 13.9357C17.1983 14.6595 16.8823 15.286 16.4596 15.5082V13.8415C16.4596 13.6609 16.3133 13.5146 16.1327 13.5146C15.9521 13.5146 15.8058 13.6609 15.8058 13.8415V15.5082C15.3831 15.286 15.0671 14.6595 15.0671 13.9357ZM8.76162 14.8593H10.8545V17.953H8.76162V14.8593ZM5.66579 3.94046V3.76709C5.66579 3.64993 5.76113 3.55459 5.87829 3.55459H13.7408C13.8562 3.55459 13.9501 3.64993 13.9501 3.76709V3.94046C13.9501 4.05762 13.8562 4.15296 13.7408 4.15296C13.9795 4.15272 10.3174 4.15213 5.87829 4.15296C5.76102 4.15284 5.66579 4.05762 5.66579 3.94046ZM13.0265 4.8067V17.9532H11.5085V14.8595H11.543C11.7236 14.8595 11.87 14.7131 11.87 14.5325C11.87 14.3519 11.7236 14.2056 11.543 14.2056H8.0735C7.8929 14.2056 7.74656 14.3519 7.74656 14.5325C7.74656 14.7131 7.89289 14.8595 8.0735 14.8595H8.10801V17.9532H6.59668C6.59609 16.6232 6.59905 22.7991 6.59028 4.8067H13.0265ZM3.50831 10.9273L5.9364 9.89908V17.9531H3.50831V10.9273Z" fill="#6A7381"/>
<path d="M4.96025 16.6445H4.4871C4.3065 16.6445 4.16016 16.7909 4.16016 16.9715C4.16016 17.1521 4.30649 17.2984 4.4871 17.2984H4.96025C5.14085 17.2984 5.2872 17.1521 5.2872 16.9715C5.2872 16.791 5.14075 16.6445 4.96025 16.6445Z" fill="#6A7381"/>
<path d="M4.4871 12.2906H4.96025C5.14085 12.2906 5.2872 12.1443 5.2872 11.9637C5.2872 11.783 5.14087 11.6367 4.96025 11.6367L4.4871 11.6368C4.3065 11.6368 4.16016 11.7832 4.16016 11.9638C4.16016 12.1443 4.30649 12.2906 4.4871 12.2906Z" fill="#6A7381"/>
<path d="M4.96025 12.8887H4.4871C4.3065 12.8887 4.16016 13.035 4.16016 13.2156C4.16016 13.3962 4.30649 13.5426 4.4871 13.5426H4.96025C5.14085 13.5426 5.2872 13.3962 5.2872 13.2156C5.2872 13.0351 5.14075 12.8887 4.96025 12.8887Z" fill="#6A7381"/>
<path d="M4.96025 14.1406H4.4871C4.3065 14.1406 4.16016 14.287 4.16016 14.4676C4.16016 14.6482 4.30649 14.7945 4.4871 14.7945H4.96025C5.14085 14.7945 5.2872 14.6482 5.2872 14.4676C5.2872 14.287 5.14075 14.1406 4.96025 14.1406Z" fill="#6A7381"/>
<path d="M4.96025 15.3926H4.4871C4.3065 15.3926 4.16016 15.5389 4.16016 15.7195C4.16016 15.9001 4.30649 16.0465 4.4871 16.0465H4.96025C5.14085 16.0465 5.2872 15.9001 5.2872 15.7195C5.2872 15.5389 5.14075 15.3926 4.96025 15.3926Z" fill="#6A7381"/>
<path d="M7.58866 7.6194H12.026C12.2066 7.6194 12.3529 7.47307 12.3529 7.29245V5.78398C12.3529 5.60338 12.2066 5.45703 12.026 5.45703H7.58866C7.40806 5.45703 7.26172 5.60336 7.26172 5.78398V7.29245C7.26172 7.47294 7.40805 7.6194 7.58866 7.6194ZM7.91561 6.11092H11.6993V6.96554H7.91561V6.11092Z" fill="#6A7381"/>
<path d="M7.58866 10.438H12.026C12.2066 10.438 12.3529 10.2917 12.3529 10.1111V8.60234C12.3529 8.42174 12.2066 8.27539 12.026 8.27539L7.58866 8.27551C7.40806 8.27551 7.26172 8.42184 7.26172 8.60246V10.1112C7.26172 10.2917 7.40805 10.438 7.58866 10.438ZM7.91561 8.92941H11.6993V9.78426L7.91561 9.78414V8.92941Z" fill="#6A7381"/>
<path d="M7.58866 13.2522H12.026C12.2066 13.2522 12.3529 13.1059 12.3529 12.9253V11.4168C12.3529 11.2362 12.2066 11.0898 12.026 11.0898H7.58866C7.40806 11.0898 7.26172 11.2362 7.26172 11.4168V12.9253C7.26172 13.1058 7.40805 13.2522 7.58866 13.2522ZM7.91561 11.7437H11.6993V12.5984H7.91561V11.7437Z" fill="#6A7381"/>
</svg>
