<svg width="16" height="17" viewBox="0 0 16 17" fill="none" xmlns="http://www.w3.org/2000/svg">
<path d="M0.452186 16.6374H15.4905C15.6711 16.6374 15.8175 16.4911 15.8175 16.3104C15.8175 16.1298 15.6711 15.9835 15.4905 15.9835H14.4593V14.2122C15.2618 14.0116 15.8517 13.0841 15.8517 11.9355C15.8517 11.0849 15.3186 7.78785 14.1324 7.78785C12.9462 7.78785 12.413 11.0849 12.413 11.9355C12.413 13.0841 13.0031 14.0116 13.8054 14.2122V15.9835H11.6798V2.80636H11.7402C12.216 2.80636 12.6033 2.41764 12.6033 1.94V1.76675C12.6033 1.28911 12.216 0.900391 11.7402 0.900391H3.87767C3.40003 0.900391 3.0113 1.28911 3.0113 1.76675V1.94012C3.0113 2.41776 3.40003 2.80648 3.87767 2.80648H3.93577V7.18884L1.05315 8.40929C0.932312 8.46052 0.853693 8.5791 0.853693 8.71037V15.9833H0.451947C0.271346 15.9833 0.125 16.1297 0.125 16.3103C0.125 16.4909 0.271449 16.6372 0.451947 16.6372L0.452186 16.6374ZM13.0671 11.9357C13.0671 10.5758 13.775 8.45097 14.1327 8.44156C14.4902 8.45176 15.1983 10.5768 15.1983 11.9357C15.1983 12.6595 14.8823 13.286 14.4596 13.5082V11.8415C14.4596 11.6609 14.3133 11.5146 14.1327 11.5146C13.9521 11.5146 13.8058 11.6609 13.8058 11.8415V13.5082C13.3831 13.286 13.0671 12.6595 13.0671 11.9357ZM6.76162 12.8593H8.85447V15.953H6.76162V12.8593ZM3.66579 1.94046V1.76709C3.66579 1.64993 3.76113 1.55459 3.87829 1.55459H11.7408C11.8562 1.55459 11.9501 1.64993 11.9501 1.76709V1.94046C11.9501 2.05762 11.8562 2.15296 11.7408 2.15296C11.9795 2.15272 8.31742 2.15213 3.87829 2.15296C3.76102 2.15284 3.66579 2.05762 3.66579 1.94046ZM11.0265 2.8067V15.9532H9.50851V12.8595H9.54302C9.72362 12.8595 9.86997 12.7131 9.86997 12.5325C9.86997 12.3519 9.72364 12.2056 9.54302 12.2056H6.0735C5.8929 12.2056 5.74656 12.3519 5.74656 12.5325C5.74656 12.7131 5.89289 12.8595 6.0735 12.8595H6.10801V15.9532H4.59668C4.59609 14.6232 4.59905 20.7991 4.59028 2.8067H11.0265ZM1.50831 8.92731L3.9364 7.89908V15.9531H1.50831V8.92731Z" fill="#6A7381"/>
</svg>
