<svg width="14" height="14" viewBox="0 0 14 14" fill="none" xmlns="http://www.w3.org/2000/svg">
<path d="M12.0287 4.55346L5.76827 10.8139C5.65444 10.9277 5.54061 10.9847 5.36987 10.9847C5.19913 10.9847 5.08531 10.9277 4.97148 10.8139L2.12582 7.96826C1.89816 7.74061 1.89816 7.39913 2.12582 7.17147C2.35347 6.94382 2.69495 6.94382 2.9226 7.17147L5.36987 9.61874L11.2319 3.75668C11.4596 3.52902 11.8011 3.52902 12.0287 3.75668C12.2564 3.98433 12.2564 4.32581 12.0287 4.55346Z" fill="black"/>
<mask id="mask0_6571_4030" style="mask-type:luminance" maskUnits="userSpaceOnUse" x="1" y="3" width="12" height="8">
<path d="M12.0287 4.55346L5.76827 10.8139C5.65444 10.9277 5.54061 10.9847 5.36987 10.9847C5.19913 10.9847 5.08531 10.9277 4.97148 10.8139L2.12582 7.96826C1.89816 7.74061 1.89816 7.39913 2.12582 7.17147C2.35347 6.94382 2.69495 6.94382 2.9226 7.17147L5.36987 9.61874L11.2319 3.75668C11.4596 3.52902 11.8011 3.52902 12.0287 3.75668C12.2564 3.98433 12.2564 4.32581 12.0287 4.55346Z" fill="white"/>
</mask>
<g mask="url(#mask0_6571_4030)">
<rect x="0.248047" y="0.169922" width="13.6592" height="13.6592" fill="#28C76F"/>
</g>
</svg>
